<svg width="120" height="168" viewBox="0 0 120 168" fill="none" xmlns="http://www.w3.org/2000/svg">
<path opacity="0.2" d="M70.7532 122.12C70.3522 105.606 59.8609 84.4585 71.7229 72.4111C83.5258 60.424 105.926 68.9953 122.863 69.1953C136.96 69.5185 154.249 64.3196 164.745 73.2207C170.796 78.356 172.98 88.6182 170.318 96.0029C164.826 111.421 141.799 114.406 130.055 126.334C118.311 138.261 116.631 161.209 100.74 166.669C91.807 169.861 79.6931 166.563 73.7795 159.608C65.625 150.01 71.24 134.706 70.7532 122.12ZM99.3245 33.6973C94.5167 19.9792 98.1586 5.59938 107.917 1.56835C117.378 -2.28002 129.361 5.59205 134.41 19.3047C139.46 33.0172 135.815 47.279 126.115 51.25C116.416 55.2207 104.613 47.2871 99.3245 33.6973ZM48.5373 41.4756C39.6513 29.1396 39.0481 14.2711 47.0041 8.23047C55.2022 2.18438 68.8717 7.26338 77.7551 19.4824C86.5231 31.9383 87.126 46.8072 79.0491 52.8506C70.9129 58.9538 57.3027 53.8145 48.5373 41.4756ZM17.9729 80.1992C4.8405 72.2957 -0.979399 59.245 4.80883 51.0859C10.721 43.0412 26.0778 42.9256 39.2131 50.9463C52.2865 58.9098 58.2245 71.8405 52.3743 79.9424C46.583 87.9843 31.1672 88.1598 17.9729 80.1992ZM21.22 134.264C6.84634 130.021 -1.83161 118.794 1.69067 109.456C5.3873 99.8213 20.0402 95.6206 34.4084 99.6289C48.6671 104.108 57.4014 115.159 53.7639 124.733C50.1263 134.308 35.5939 138.506 21.22 134.264Z" fill="#8F5432"/>
</svg>
