<svg width="120" height="168" viewBox="0 0 120 168" fill="none" xmlns="http://www.w3.org/2000/svg">
<path opacity="0.2" d="M70.7524 122.119C70.3515 105.605 59.8612 84.4585 71.7231 72.4111C83.5261 60.4237 105.926 68.9944 122.863 69.1943C136.96 69.5175 154.25 64.3186 164.746 73.2197C170.796 78.3551 172.981 88.6182 170.318 96.0029C164.826 111.42 141.799 114.407 130.055 126.334C118.311 138.262 116.631 161.209 100.739 166.669C91.8063 169.861 79.6933 166.562 73.7798 159.607C65.6252 150.008 71.2394 134.705 70.7524 122.119ZM99.3247 33.6963C94.5171 19.9783 98.1589 5.5993 107.917 1.56835C117.378 -2.28002 129.361 5.59107 134.411 19.3037C139.46 33.0163 135.815 47.279 126.116 51.25C116.416 55.2208 104.613 47.2862 99.3247 33.6963ZM48.5376 41.4756C39.6513 29.1394 39.0481 14.2701 47.0044 8.22949C55.2024 2.18365 68.871 7.26274 77.7544 19.4814C86.5226 31.9375 87.1255 46.8063 79.0483 52.8496C70.9122 58.9528 57.303 53.8143 48.5376 41.4756ZM17.9722 80.1982C4.83991 72.2947 -0.979316 59.244 4.80908 51.085C10.7214 43.0405 26.0782 42.9247 39.2134 50.9453C52.2867 58.9088 58.2238 71.8396 52.3735 79.9414C46.5822 87.9833 31.1665 88.159 17.9722 80.1982ZM21.2202 134.264C6.84627 130.021 -1.83151 118.793 1.69092 109.455C5.38776 99.8205 20.0406 95.6197 34.4087 99.6279C48.6672 104.107 57.4006 115.158 53.7632 124.732C50.1256 134.307 35.5941 138.506 21.2202 134.264Z" fill="#FFF7ED"/>
</svg>
