<svg width="1440" height="805" viewBox="0 0 1440 805" fill="none" xmlns="http://www.w3.org/2000/svg">
<rect width="1440" height="805" fill="url(#paint0_linear_43_613)"/>
<path opacity="0.2" d="M55.1623 324.36C57.9336 326.397 57.9735 331.687 55.2104 336.212C52.4671 340.716 48.0127 342.761 45.2217 340.746C42.4513 338.751 42.3908 333.44 45.1332 328.895C47.8559 324.371 52.3516 322.366 55.1623 324.36ZM69.9254 338.896C72.0081 341.72 70.2585 346.429 66.0492 349.489C61.7583 352.51 56.6362 352.717 54.5544 349.935C52.4519 347.132 54.2222 342.444 58.4728 339.424C62.7224 336.363 67.8445 336.155 69.9254 338.896ZM35.0545 323.286C38.3736 324.559 39.8208 329.607 38.44 334.557C36.8969 339.469 33.0901 342.478 29.7917 341.224C26.4933 339.971 25.047 334.965 26.5085 330.014C27.97 325.062 31.8378 322.073 35.0545 323.286ZM72.2202 359.88C73.546 363.139 70.8344 367.267 66.1106 369.006C61.3868 370.746 56.4736 369.49 55.1057 366.149C53.7377 362.807 56.4708 358.741 61.1524 356.92C65.8781 355.263 70.8316 356.518 72.2202 359.88ZM47.5372 379.456C45.7681 381.541 42.2328 382.293 39.6889 381.376C34.3777 379.484 33.3491 371.552 29.2403 367.506C25.1314 363.46 17.2262 362.881 15.3454 357.407C14.2458 354.33 15.3819 350.157 17.7778 348.12C21.0845 345.31 26.3563 347.245 30.6921 347.077C36.3809 346.939 43.6657 343.325 47.8159 347.411C51.9454 351.477 48.9928 359.194 48.9239 365.028C48.8126 369.885 50.6035 375.84 47.5372 379.456Z" fill="#744D24"/>
<path opacity="0.2" d="M48.6534 222.531C51.4247 224.568 51.4645 229.858 48.7015 234.383C45.9582 238.886 41.5038 240.932 38.7128 238.917C35.9424 236.922 35.8819 231.611 38.6243 227.066C41.347 222.542 45.8427 220.537 48.6534 222.531ZM63.4164 237.067C65.4992 239.891 63.7496 244.6 59.5403 247.66C55.2494 250.68 50.1273 250.888 48.0455 248.106C45.943 245.303 47.7133 240.615 51.9639 237.595C56.2135 234.534 61.3355 234.326 63.4164 237.067ZM28.5456 221.457C31.8647 222.73 33.3119 227.778 31.9311 232.728C30.388 237.64 26.5812 240.648 23.2828 239.395C19.9844 238.142 18.5381 233.136 19.9996 228.185C21.4611 223.233 25.3289 220.244 28.5456 221.457ZM65.7113 258.051C67.037 261.31 64.3255 265.438 59.6017 267.177C54.8779 268.917 49.9647 267.661 48.5967 264.32C47.2288 260.978 49.9619 256.912 54.6435 255.091C59.3692 253.434 64.3227 254.689 65.7113 258.051ZM41.0282 277.627C39.2592 279.711 35.7239 280.464 33.18 279.547C27.8688 277.655 26.8402 269.722 22.7313 265.677C18.6225 261.631 10.7173 261.052 8.83644 255.578C7.7369 252.501 8.87302 248.328 11.2689 246.291C14.5756 243.481 19.8474 245.416 24.1832 245.248C29.872 245.11 37.1568 241.496 41.307 245.582C45.4365 249.648 42.4839 257.365 42.415 263.199C42.3037 268.055 44.0946 274.011 41.0282 277.627Z" fill="#744D24"/>
<path opacity="0.2" d="M155.653 219.435C158.425 221.472 158.465 226.762 155.702 231.287C152.958 235.79 148.504 237.836 145.713 235.82C142.942 233.825 142.882 228.515 145.624 223.97C148.347 219.446 152.843 217.441 155.653 219.435ZM170.416 233.971C172.499 236.795 170.75 241.504 166.54 244.564C162.249 247.584 157.127 247.792 155.045 245.01C152.943 242.207 154.713 237.518 158.964 234.499C163.213 231.438 168.336 231.23 170.416 233.971ZM135.546 218.361C138.865 219.634 140.312 224.682 138.931 229.632C137.388 234.544 133.581 237.552 130.283 236.299C126.984 235.046 125.538 230.04 127 225.088C128.461 220.137 132.329 217.147 135.546 218.361ZM172.711 254.955C174.037 258.214 171.326 262.342 166.602 264.081C161.878 265.821 156.965 264.565 155.597 261.224C154.229 257.882 156.962 253.816 161.643 251.994C166.369 250.338 171.323 251.593 172.711 254.955ZM148.028 274.531C146.259 276.615 142.724 277.368 140.18 276.45C134.869 274.559 133.84 266.626 129.731 262.581C125.622 258.535 117.717 257.956 115.836 252.482C114.737 249.404 115.873 245.232 118.269 243.194C121.576 240.385 126.847 242.32 131.183 242.152C136.872 242.014 144.157 238.4 148.307 242.486C152.437 246.552 149.484 254.269 149.415 260.103C149.304 264.959 151.095 270.915 148.028 274.531Z" fill="#744D24"/>
<path opacity="0.2" d="M131.653 128.614C134.425 130.651 134.465 135.941 131.702 140.466C128.958 144.97 124.504 147.015 121.713 145C118.942 143.005 118.882 137.694 121.624 133.149C124.347 128.625 128.843 126.62 131.653 128.614ZM146.416 143.15C148.499 145.974 146.75 150.683 142.54 153.743C138.249 156.764 133.127 156.971 131.045 154.189C128.943 151.386 130.713 146.698 134.964 143.678C139.213 140.617 144.336 140.409 146.416 143.15ZM111.546 127.54C114.865 128.814 116.312 133.861 114.931 138.811C113.388 143.723 109.581 146.732 106.283 145.479C102.984 144.226 101.538 139.22 103 134.268C104.461 129.316 108.329 126.327 111.546 127.54ZM148.711 164.134C150.037 167.393 147.326 171.521 142.602 173.261C137.878 175 132.965 173.744 131.597 170.403C130.229 167.062 132.962 162.996 137.643 161.174C142.369 159.518 147.323 160.772 148.711 164.134ZM124.028 183.71C122.259 185.795 118.724 186.547 116.18 185.63C110.869 183.738 109.84 175.806 105.731 171.76C101.622 167.715 93.7173 167.136 91.8364 161.661C90.7369 158.584 91.873 154.411 94.2689 152.374C97.5756 149.565 102.847 151.499 107.183 151.331C112.872 151.193 120.157 147.579 124.307 151.665C128.437 155.731 125.484 163.448 125.415 169.282C125.304 174.139 127.095 180.095 124.028 183.71Z" fill="#744D24"/>
<path opacity="0.2" d="M244.653 79.076C247.425 81.1126 247.465 86.4028 244.702 90.9277C241.958 95.4314 237.504 97.4768 234.713 95.4614C231.942 93.4664 231.882 88.156 234.624 83.6107C237.347 79.0867 241.843 77.0819 244.653 79.076ZM259.416 93.6118C261.499 96.4359 259.75 101.145 255.54 104.205C251.249 107.225 246.127 107.433 244.045 104.651C241.943 101.848 243.713 97.1594 247.964 94.1398C252.213 91.0786 257.336 90.8709 259.416 93.6118ZM224.546 78.0018C227.865 79.2753 229.312 84.3229 227.931 89.2726C226.388 94.1846 222.581 97.1933 219.283 95.9402C215.984 94.6871 214.538 89.6811 216 84.7295C217.461 79.7778 221.329 76.7884 224.546 78.0018ZM261.711 114.596C263.037 117.855 260.326 121.983 255.602 123.722C250.878 125.462 245.965 124.206 244.597 120.865C243.229 117.523 245.962 113.457 250.643 111.635C255.369 109.979 260.323 111.234 261.711 114.596ZM237.028 134.172C235.259 136.256 231.724 137.009 229.18 136.091C223.869 134.2 222.84 126.267 218.731 122.222C214.622 118.176 206.717 117.597 204.836 112.123C203.737 109.045 204.873 104.873 207.269 102.835C210.576 100.026 215.847 101.961 220.183 101.793C225.872 101.655 233.157 98.0406 237.307 102.127C241.437 106.193 238.484 113.91 238.415 119.744C238.304 124.6 240.095 130.556 237.028 134.172Z" fill="#744D24"/>
<path opacity="0.2" d="M213.653 13.0247C216.425 15.0613 216.465 20.3515 213.702 24.8764C210.958 29.3801 206.504 31.4255 203.713 29.4102C200.942 27.4151 200.882 22.1047 203.624 17.5594C206.347 13.0354 210.843 11.0306 213.653 13.0247ZM228.416 27.5605C230.499 30.3846 228.75 35.0933 224.54 38.1535C220.249 41.174 215.127 41.3817 213.045 38.5992C210.943 35.7964 212.713 31.1081 216.964 28.0885C221.213 25.0273 226.336 24.8197 228.416 27.5605ZM193.546 11.9506C196.865 13.224 198.312 18.2717 196.931 23.2213C195.388 28.1333 191.581 31.1421 188.283 29.8889C184.984 28.6358 183.538 23.6298 185 18.6782C186.461 13.7266 190.329 10.7371 193.546 11.9506ZM230.711 48.5442C232.037 51.8034 229.326 55.9313 224.602 57.6708C219.878 59.4103 214.965 58.1547 213.597 54.8133C212.229 51.4719 214.962 47.4059 219.643 45.5841C224.369 43.9279 229.323 45.1825 230.711 48.5442ZM206.028 68.1207C204.259 70.2051 200.724 70.9575 198.18 70.0402C192.869 68.1485 191.84 60.216 187.731 56.1704C183.622 52.1248 175.717 51.5459 173.836 46.0714C172.737 42.9942 173.873 38.8212 176.269 36.7841C179.576 33.9749 184.847 35.9092 189.183 35.7415C194.872 35.6033 202.157 31.9893 206.307 36.0756C210.437 40.1416 207.484 47.8583 207.415 53.6927C207.304 58.5491 209.095 64.5049 206.028 68.1207Z" fill="#744D24"/>
<defs>
<linearGradient id="paint0_linear_43_613" x1="720" y1="0" x2="720" y2="754.429" gradientUnits="userSpaceOnUse">
<stop stop-color="#F3E6D6"/>
<stop offset="1" stop-color="#F3E6D6" stop-opacity="0"/>
</linearGradient>
</defs>
</svg>
