<svg width="79" height="80" viewBox="0 0 79 80" fill="none" xmlns="http://www.w3.org/2000/svg">
<path fill-rule="evenodd" clip-rule="evenodd" d="M33.4965 2.00654C44.6856 0.366434 57.0149 -0.168226 65.7229 7.16851C74.9817 14.9693 78.4386 27.7349 78.5528 39.9676C78.6681 52.3254 75.5849 65.3822 66.3411 73.3959C57.5548 81.0131 45.0335 79.3673 33.4965 79.0283C22.4585 78.7039 8.97083 80.6231 2.49538 71.5195C-3.83797 62.6157 4.37283 50.8748 5.71233 39.9676C6.76056 31.432 4.33499 22.325 9.38401 15.4267C15.0731 7.65378 24.0705 3.3882 33.4965 2.00654Z" fill="#F0CFAE"/>
<path d="M43.9662 28.5506L45.2054 26.3464C45.2213 26.3181 45.2313 26.2871 45.235 26.255C45.2387 26.2229 45.2359 26.1905 45.2269 26.1594C45.2178 26.1284 45.2026 26.0995 45.1822 26.0742C45.1618 26.049 45.1366 26.0279 45.1079 26.0123C45.0793 25.9967 45.0478 25.9868 45.0153 25.9831C44.9827 25.9795 44.9498 25.9822 44.9183 25.9912C44.8869 26.0001 44.8575 26.015 44.8319 26.0351C44.8063 26.0553 44.7849 26.0801 44.7691 26.1084L43.5169 28.3356C42.4481 27.8734 41.2936 27.6349 40.1264 27.6349C38.9593 27.6349 37.8048 27.8734 36.736 28.3356L35.4838 26.1084C35.4518 26.051 35.398 26.0085 35.3342 25.9903C35.2704 25.972 35.2019 25.9795 35.1437 26.011C35.0855 26.0426 35.0424 26.0957 35.0238 26.1585C35.0053 26.2214 35.0129 26.289 35.0449 26.3464L36.2842 28.5506C35.1054 29.1244 34.1095 30.0069 33.4055 31.1014C32.7015 32.1959 32.3166 33.4603 32.2928 34.7562H47.9601C47.9361 33.4601 47.5507 32.1955 46.8463 31.1009C46.1418 30.0064 45.1454 29.1241 43.9662 28.5506ZM36.5113 31.9296C36.3818 31.9296 36.2553 31.8917 36.1476 31.8207C36.0399 31.7498 35.9561 31.6489 35.9066 31.531C35.8571 31.413 35.8442 31.2832 35.8695 31.158C35.8949 31.0328 35.9574 30.9178 36.049 30.8276C36.1407 30.7374 36.2574 30.6761 36.3845 30.6513C36.5115 30.6266 36.6431 30.6395 36.7627 30.6886C36.8823 30.7376 36.9844 30.8205 37.0561 30.9268C37.1279 31.0331 37.1661 31.1579 37.1658 31.2856C37.1655 31.4565 37.0964 31.6203 36.9737 31.741C36.851 31.8618 36.6847 31.9296 36.5113 31.9296ZM43.7428 31.9296C43.6133 31.9296 43.4868 31.8917 43.3791 31.8207C43.2714 31.7498 43.1876 31.6489 43.1381 31.531C43.0886 31.413 43.0757 31.2832 43.101 31.158C43.1264 31.0328 43.1889 30.9178 43.2805 30.8276C43.3722 30.7374 43.4889 30.6761 43.616 30.6513C43.743 30.6266 43.8746 30.6395 43.9942 30.6886C44.1138 30.7376 44.2159 30.8205 44.2876 30.9268C44.3594 31.0331 44.3976 31.1579 44.3973 31.2856C44.397 31.4565 44.3279 31.6203 44.2052 31.741C44.0825 31.8618 43.9162 31.9296 43.7428 31.9296ZM32.2902 46.5614C32.2898 46.8072 32.3387 47.0505 32.434 47.2776C32.5292 47.5046 32.669 47.7109 32.8453 47.8846C33.0216 48.0583 33.2309 48.196 33.4613 48.2897C33.6917 48.3835 33.9385 48.4315 34.1878 48.431H35.4438V52.249C35.4438 52.7082 35.6288 53.1486 35.9582 53.4733C36.2875 53.798 36.7342 53.9805 37.2 53.9805C37.6658 53.9805 38.1125 53.798 38.4419 53.4733C38.7712 53.1486 38.9563 52.7082 38.9563 52.249V48.431H41.2979V52.249C41.2979 52.708 41.4829 53.1483 41.8121 53.4729C42.1414 53.7975 42.5879 53.9798 43.0535 53.9798C43.5191 53.9798 43.9657 53.7975 44.2949 53.4729C44.6241 53.1483 44.8091 52.708 44.8091 52.249V48.431H46.0664C46.3153 48.4312 46.5618 48.383 46.7918 48.2891C47.0218 48.1953 47.2308 48.0577 47.4068 47.8842C47.5828 47.7106 47.7224 47.5046 47.8175 47.2779C47.9127 47.0511 47.9616 46.8081 47.9614 46.5627V35.3671H32.2902V46.5614ZM29.8801 35.0693C29.6494 35.0693 29.4211 35.1141 29.208 35.2011C28.9949 35.2882 28.8013 35.4158 28.6383 35.5766C28.4752 35.7375 28.3459 35.9285 28.2578 36.1386C28.1696 36.3487 28.1243 36.574 28.1245 36.8014V44.0161C28.1245 44.2434 28.1699 44.4685 28.2581 44.6785C28.3464 44.8885 28.4757 45.0793 28.6387 45.24C28.8017 45.4007 28.9953 45.5282 29.2083 45.6152C29.4213 45.7022 29.6496 45.7469 29.8801 45.7469C30.1107 45.7469 30.3389 45.7022 30.5519 45.6152C30.7649 45.5282 30.9585 45.4007 31.1215 45.24C31.2845 45.0793 31.4138 44.8885 31.5021 44.6785C31.5903 44.4685 31.6357 44.2434 31.6357 44.0161V36.8014C31.6357 36.5741 31.5903 36.349 31.5021 36.139C31.4138 35.929 31.2845 35.7382 31.1215 35.5775C30.9585 35.4167 30.7649 35.2893 30.5519 35.2023C30.3389 35.1153 30.1107 35.0705 29.8801 35.0705M50.3689 35.0705C50.1383 35.0705 49.9099 35.1153 49.6968 35.2024C49.4837 35.2895 49.2901 35.4171 49.1271 35.5779C48.964 35.7388 48.8347 35.9297 48.7466 36.1399C48.6584 36.35 48.6132 36.5752 48.6133 36.8026V44.0174C48.6133 44.2447 48.6587 44.4697 48.747 44.6797C48.8352 44.8897 48.9645 45.0805 49.1275 45.2413C49.2905 45.402 49.4841 45.5295 49.6971 45.6165C49.9101 45.7034 50.1384 45.7482 50.3689 45.7482C50.5995 45.7482 50.8278 45.7034 51.0408 45.6165C51.2538 45.5295 51.4473 45.402 51.6103 45.2413C51.7733 45.0805 51.9026 44.8897 51.9909 44.6797C52.0791 44.4697 52.1245 44.2447 52.1245 44.0174V36.8014C52.1245 36.3423 51.9395 35.9021 51.6103 35.5775C51.2811 35.2529 50.8345 35.0705 50.3689 35.0705Z" fill="#8F5432"/>
</svg>
