<svg width="78" height="80" viewBox="0 0 78 80" fill="none" xmlns="http://www.w3.org/2000/svg">
<path fill-rule="evenodd" clip-rule="evenodd" d="M58.6667 8.04032C69.1297 14.2959 75.4018 26.2022 77.012 37.0589C78.724 48.6022 76.1817 55.6337 66.9978 64.2138C57.72 72.8817 45.2765 79.9214 31.5823 79.3829C18.5656 78.871 17.3825 74.0092 8.13402 66.1477C-0.714413 58.6262 -0.63571 52.7663 0.933718 42.1569C2.4687 31.7804 -2.39371 22.7654 6.98268 16.0676C14.3202 10.8261 19.229 2.89136 28.6212 1.43263C39.204 -0.211023 49.8525 2.77051 58.6667 8.04032Z" fill="#F0CFAE"/>
<path d="M47.1211 52.8571C45.5704 54.3347 43.8772 54.1014 42.2474 53.4015C40.5226 52.686 38.9402 52.6549 37.1205 53.4015C34.8419 54.3658 33.6393 54.0858 32.2784 52.8571C24.5564 45.0336 25.6958 33.1196 34.4621 32.6841C36.5983 32.7929 38.0857 33.835 39.3358 33.9284C41.203 33.5551 42.9911 32.4819 44.9849 32.6219C47.3743 32.8085 49.1782 33.7417 50.365 35.4215C45.428 38.33 46.5989 44.7225 51.1245 46.5112C50.2226 48.8443 49.0516 51.1617 47.1053 52.8726L47.1211 52.8571ZM39.1776 32.5907C38.9402 29.1223 41.8043 26.2604 45.0957 25.9805C45.5546 29.9933 41.3929 32.9796 39.1776 32.5907Z" fill="#8F5432"/>
</svg>
