<svg width="78" height="79" viewBox="0 0 78 79" fill="none" xmlns="http://www.w3.org/2000/svg">
<path fill-rule="evenodd" clip-rule="evenodd" d="M58.9863 7.60868C69.4493 13.8643 75.7214 25.7706 77.3316 36.6273C79.0436 48.1706 76.5013 55.2021 67.3174 63.7822C58.0395 72.4501 45.5961 79.4897 31.9019 78.9512C18.8852 78.4394 17.7021 73.5775 8.4536 65.716C-0.394833 58.1946 -0.31613 52.3347 1.2533 41.7253C2.78828 31.3488 -2.07413 22.3337 7.30226 15.6359C14.6398 10.3945 19.5486 2.45972 28.9408 1.00099C39.5235 -0.642663 50.172 2.33887 58.9863 7.60868Z" fill="#F0CFAE"/>
<path d="M42.3527 25.6465C40.457 25.6465 38.639 26.4004 37.2985 27.7423C35.9581 29.0842 35.205 30.9042 35.205 32.802V36.7859H31.38C31.1884 36.7859 31.0323 36.9406 31.0323 37.134V42.3943C31.0323 42.5861 31.1868 42.7424 31.38 42.7424H35.205V53.5337C35.205 53.7255 35.3596 53.8818 35.5527 53.8818H40.8072C40.9989 53.8818 41.155 53.7271 41.155 53.5337V42.7424H45.014C45.1731 42.7424 45.3122 42.6341 45.3509 42.4794L46.6645 37.2191C46.6774 37.1678 46.6785 37.1142 46.6676 37.0623C46.6567 37.0105 46.6342 36.9619 46.6017 36.9201C46.5692 36.8784 46.5276 36.8446 46.4801 36.8213C46.4326 36.798 46.3805 36.7859 46.3276 36.7859H41.155V32.802C41.155 32.6445 41.186 32.4886 41.2461 32.3432C41.3063 32.1977 41.3946 32.0655 41.5058 31.9542C41.617 31.8428 41.749 31.7545 41.8943 31.6942C42.0397 31.634 42.1954 31.603 42.3527 31.603H46.3709C46.5625 31.603 46.7186 31.4483 46.7186 31.2549V25.9946C46.7186 25.8027 46.564 25.6465 46.3709 25.6465H42.3527Z" fill="#8F5432"/>
</svg>
