<svg width="80" height="80" viewBox="0 0 80 80" fill="none" xmlns="http://www.w3.org/2000/svg">
<path fill-rule="evenodd" clip-rule="evenodd" d="M34.2023 2.00654C45.3914 0.366434 57.7207 -0.168226 66.4287 7.16851C75.6875 14.9693 79.1444 27.7349 79.2586 39.9676C79.374 52.3254 76.2907 65.3822 67.047 73.3959C58.2606 81.0131 45.7393 79.3673 34.2023 79.0283C23.1643 78.7039 9.67664 80.6231 3.20119 71.5195C-3.13216 62.6157 5.07864 50.8748 6.41814 39.9676C7.46637 31.432 5.04081 22.325 10.0898 15.4267C15.7789 7.65378 24.7763 3.3882 34.2023 2.00654Z" fill="#F0CFAE"/>
<path d="M46.3732 26.0781C48.3787 26.0781 50.302 26.8748 51.7201 28.2929C53.1382 29.711 53.9349 31.6344 53.9349 33.6398V45.7386C53.9349 47.7441 53.1382 49.6674 51.7201 51.0855C50.302 52.5036 48.3787 53.3003 46.3732 53.3003H34.2744C32.2689 53.3003 30.3456 52.5036 28.9275 51.0855C27.5094 49.6674 26.7127 47.7441 26.7127 45.7386V33.6398C26.7127 31.6344 27.5094 29.711 28.9275 28.2929C30.3456 26.8748 32.2689 26.0781 34.2744 26.0781H46.3732ZM40.3238 33.6398C38.7194 33.6398 37.1807 34.2772 36.0462 35.4117C34.9118 36.5461 34.2744 38.0848 34.2744 39.6892C34.2744 41.2936 34.9118 42.8323 36.0462 43.9668C37.1807 45.1012 38.7194 45.7386 40.3238 45.7386C41.9282 45.7386 43.4669 45.1012 44.6014 43.9668C45.7358 42.8323 46.3732 41.2936 46.3732 39.6892C46.3732 38.0848 45.7358 36.5461 44.6014 35.4117C43.4669 34.2772 41.9282 33.6398 40.3238 33.6398ZM40.3238 36.6645C41.126 36.6645 41.8953 36.9832 42.4626 37.5504C43.0298 38.1177 43.3485 38.887 43.3485 39.6892C43.3485 40.4914 43.0298 41.2608 42.4626 41.828C41.8953 42.3952 41.126 42.7139 40.3238 42.7139C39.5216 42.7139 38.7523 42.3952 38.185 41.828C37.6178 41.2608 37.2991 40.4914 37.2991 39.6892C37.2991 38.887 37.6178 38.1177 38.185 37.5504C38.7523 36.9832 39.5216 36.6645 40.3238 36.6645ZM47.1293 31.3713C46.7282 31.3713 46.3436 31.5307 46.06 31.8143C45.7763 32.0979 45.617 32.4826 45.617 32.8837C45.617 33.2848 45.7763 33.6694 46.06 33.9531C46.3436 34.2367 46.7282 34.396 47.1293 34.396C47.5304 34.396 47.9151 34.2367 48.1987 33.9531C48.4824 33.6694 48.6417 33.2848 48.6417 32.8837C48.6417 32.4826 48.4824 32.0979 48.1987 31.8143C47.9151 31.5307 47.5304 31.3713 47.1293 31.3713Z" fill="#8F5432"/>
</svg>
