<svg width="79" height="80" viewBox="0 0 79 80" fill="none" xmlns="http://www.w3.org/2000/svg">
<path fill-rule="evenodd" clip-rule="evenodd" d="M37.1096 1.03794C48.7518 0.225413 59.1288 8.15074 66.9878 17.0333C74.4592 25.4778 79.8358 36.4627 78.4846 47.8017C77.2396 58.2493 68.6657 65.573 60.4562 71.8439C53.6446 77.0469 45.5893 79.5488 37.1096 79.4061C28.7935 79.2661 20.9001 76.5577 14.5137 71.0708C7.41426 64.9712 0.985363 57.2985 0.324316 47.8017C-0.374214 37.7663 4.87445 28.757 11.0242 20.9391C18.1052 11.9373 25.8858 1.82127 37.1096 1.03794Z" fill="#F0CFAE"/>
<path d="M28.4709 26.0781C27.6457 26.0781 26.8544 26.4065 26.271 26.991C25.6875 27.5756 25.3597 28.3684 25.3597 29.195C25.3597 30.0217 25.6875 30.8144 26.271 31.399C26.8544 31.9835 27.6457 32.3119 28.4709 32.3119C29.296 32.3119 30.0873 31.9835 30.6707 31.399C31.2542 30.8144 31.582 30.0217 31.582 29.195C31.582 28.3684 31.2542 27.5756 30.6707 26.991C30.0873 26.4065 29.296 26.0781 28.4709 26.0781ZM25.5427 34.8787C25.4942 34.8787 25.4477 34.8981 25.4133 34.9324C25.379 34.9668 25.3597 35.0135 25.3597 35.0621V54.1301C25.3597 54.2313 25.4417 54.3134 25.5427 54.3134H31.399C31.4475 54.3134 31.494 54.2941 31.5284 54.2597C31.5627 54.2253 31.582 54.1787 31.582 54.1301V35.0621C31.582 35.0135 31.5627 34.9668 31.5284 34.9324C31.494 34.8981 31.4475 34.8787 31.399 34.8787H25.5427ZM35.0591 34.8787C35.0106 34.8787 34.964 34.8981 34.9297 34.9324C34.8954 34.9668 34.8761 35.0135 34.8761 35.0621V54.1301C34.8761 54.2313 34.9581 54.3134 35.0591 54.3134H40.9153C40.9638 54.3134 41.0104 54.2941 41.0447 54.2597C41.079 54.2253 41.0983 54.1787 41.0983 54.1301V43.8627C41.0983 43.1333 41.3875 42.4338 41.9023 41.918C42.4171 41.4023 43.1154 41.1125 43.8434 41.1125C44.5714 41.1125 45.2697 41.4023 45.7845 41.918C46.2993 42.4338 46.5885 43.1333 46.5885 43.8627V54.1301C46.5885 54.2313 46.6705 54.3134 46.7715 54.3134H52.6277C52.6763 54.3134 52.7228 54.2941 52.7571 54.2597C52.7914 54.2253 52.8107 54.1787 52.8107 54.1301V41.4865C52.8107 37.9267 49.7216 35.1428 46.1859 35.464C45.092 35.5645 44.0206 35.8357 43.0104 36.2678L41.0983 37.0892V35.0621C41.0983 35.0135 41.079 34.9668 41.0447 34.9324C41.0104 34.8981 40.9638 34.8787 40.9153 34.8787H35.0591Z" fill="#8F5432"/>
</svg>
