<svg width="80" height="80" viewBox="0 0 80 80" fill="none" xmlns="http://www.w3.org/2000/svg">
<path fill-rule="evenodd" clip-rule="evenodd" d="M37.5509 4.01875C50.3481 1.86654 66.0931 -2.49161 75.0458 6.05929C83.9825 14.5949 75.4877 28.2364 75.2151 39.9925C74.9535 51.2781 81.7941 64.0965 73.5048 72.5311C65.0949 81.0882 50.0926 79.8399 37.5509 78.3166C26.8253 77.0139 17.208 72.22 10.1057 64.8306C3.50883 57.9671 0.394222 49.0846 0.715664 39.9925C1.02629 31.2063 5.20522 23.1425 11.8075 16.6946C18.7102 9.95325 27.5663 5.69793 37.5509 4.01875Z" fill="#F0CFAE"/>
<path d="M25.9711 26.0781H34.2829L41.6823 36.6611L50.5676 26.0781H53.2235L42.697 38.1134L54.0264 54.3134H45.7147L37.987 43.2628L28.4453 54.3134H25.7911L36.9741 41.814L25.9711 26.0781Z" fill="#8F5432"/>
</svg>
