<svg width="17" height="29" viewBox="0 0 17 29" fill="none" xmlns="http://www.w3.org/2000/svg">
<path d="M11.6707 0.306885C9.77505 0.306885 7.95701 1.06077 6.61655 2.40269C5.2761 3.74461 4.52305 5.56464 4.52305 7.4624V11.4463H0.698067C0.506432 11.4463 0.350342 11.601 0.350342 11.7944V17.0547C0.350342 17.2465 0.504886 17.4028 0.698067 17.4028H4.52305V28.1941C4.52305 28.3859 4.67759 28.5422 4.87077 28.5422H10.1253C10.3169 28.5422 10.473 28.3875 10.473 28.1941V17.4028H14.332C14.4912 17.4028 14.6303 17.2945 14.6689 17.1398L15.9825 11.8795C15.9955 11.8282 15.9965 11.7746 15.9856 11.7227C15.9747 11.6709 15.9522 11.6223 15.9197 11.5805C15.8872 11.5388 15.8457 11.505 15.7982 11.4817C15.7507 11.4584 15.6985 11.4463 15.6456 11.4463H10.473V7.4624C10.473 7.30495 10.504 7.14903 10.5642 7.00355C10.6244 6.85808 10.7126 6.7259 10.8238 6.61456C10.935 6.50322 11.0671 6.4149 11.2124 6.35464C11.3577 6.29439 11.5134 6.26337 11.6707 6.26337H15.6889C15.8805 6.26337 16.0366 6.10866 16.0366 5.91527V0.654991C16.0366 0.463146 15.8821 0.306885 15.6889 0.306885H11.6707Z" fill="white"/>
</svg>
