<svg width="170" height="115" viewBox="0 0 170 115" fill="none" xmlns="http://www.w3.org/2000/svg">
<path opacity="0.2" d="M46.5116 44.0088C63.2921 44.4163 84.7814 55.0767 97.0234 43.0234C107.185 33.018 102.81 15.5176 100.962 -0.000991821H13.7333C8.05729 3.32462 3.35843 7.38127 1.24309 13.5381C-2.00028 22.6149 1.35071 34.9245 8.41789 40.9336C18.1718 49.2197 33.7223 43.5141 46.5116 44.0088ZM136.362 14.9756C150.302 19.8609 164.913 16.1601 169.01 6.24413C169.823 4.24448 170.119 2.13398 169.956 -0.000991821H119.065C121.831 6.11551 128.056 11.7432 136.362 14.9756ZM128.458 66.583C140.993 75.6127 156.103 76.2254 162.241 68.1406C168.384 59.8101 163.224 45.9203 150.808 36.8935C138.15 27.9838 123.041 27.3718 116.9 35.5791C110.699 43.8466 115.92 57.676 128.458 66.583ZM89.1103 97.6416C97.1415 110.986 110.402 116.899 118.693 111.018C126.868 105.01 126.985 89.4049 118.835 76.0576C110.743 62.7735 97.6037 56.7403 89.371 62.6846C81.1992 68.5694 81.021 84.2341 89.1103 97.6416ZM34.1718 94.3418C38.483 108.948 49.8922 117.766 59.3808 114.187C69.1707 110.43 73.439 95.5404 69.3661 80.9404C64.8143 66.4517 53.5857 57.5766 43.8564 61.2724C34.1269 64.9688 29.8608 79.7357 34.1718 94.3418Z" fill="#FFF7ED"/>
</svg>
