<svg width="576" height="396" viewBox="0 0 576 396" fill="none" xmlns="http://www.w3.org/2000/svg">
<path d="M565.028 226.299C565.028 226.299 539.899 235.925 505.052 239.751C470.205 243.571 454.717 253.126 428.877 264.093C404.175 274.561 379.78 286.195 358.621 302.611C358.621 302.611 358.251 302.611 357.575 302.632C357.326 296.193 356.223 289.776 354.302 283.626L354.267 283.569C358.934 280.473 438.496 228.068 477.953 220.654C516.457 213.415 548.017 211.309 564.395 203.003L564.565 203.312C562.203 210.972 562.801 216.631 564.195 222.76C564.444 223.926 564.736 225.112 565.049 226.313H565.028V226.299Z" fill="#F3E6D6"/>
<path d="M429.546 35.3265L468.263 90.7295C449.694 97.5118 405.136 110.255 404.375 109.834C403.855 109.546 374.97 70.9933 364.341 50.8359L429.546 35.3195V35.3265Z" fill="#FFF7ED"/>
<path d="M358.614 302.603C379.773 286.195 404.168 274.554 428.87 264.086C454.717 253.119 470.205 243.571 505.045 239.744C539.892 235.925 565.021 226.292 565.021 226.292H565.042C564.729 225.091 564.445 223.905 564.188 222.739L565.056 222.55C565.056 222.55 574.739 226.369 572.797 230.188C570.862 234.008 503.103 251.202 466.321 258.848C429.539 266.487 379.204 295.147 367.585 302.793C364.235 304.991 361.374 306.1 357.867 306.802L357.632 305.658C357.632 304.647 357.611 303.636 357.554 302.618C358.23 302.596 358.6 302.596 358.6 302.596L358.614 302.603Z" fill="#8F5432"/>
<path d="M164.323 352.467C172.064 354.377 235.952 304.703 280.482 291.335C325.012 277.96 354.046 283.696 354.046 283.696C354.046 283.696 354.125 283.64 354.26 283.562L354.295 283.619C356.209 289.769 357.312 296.186 357.568 302.625C351.507 302.702 320.708 303.369 299.841 308.529C284.587 312.293 261.586 324.692 241.181 336.29C230.495 342.35 220.507 348.212 212.723 352.474C190.071 364.894 160.453 384.953 160.453 384.953C161.228 372.021 162.601 364.74 163.413 351.919C163.818 352.242 164.11 352.418 164.323 352.474V352.467Z" fill="#F3E6D6"/>
<path d="M354.046 283.689C312.505 225.8 275.758 161.151 238.585 100.433L239.204 98.1999C239.609 98.3122 239.823 98.3684 239.823 98.3684C255.311 60.1599 309.517 21.9514 354.039 20.0417C398.562 18.132 443.092 2.84717 443.092 2.84717C443.092 2.84717 466.321 44.8751 497.298 88.8198C528.274 132.764 566.992 201.536 566.992 201.536C566.18 202.034 565.305 202.525 564.381 202.989C548.003 211.302 516.45 213.401 477.939 220.64C438.482 228.054 358.92 280.459 354.253 283.555C354.118 283.633 354.039 283.689 354.039 283.689H354.046ZM468.27 90.7295L429.553 35.3265L364.348 50.843C374.977 71.0004 403.862 109.553 404.382 109.841C405.136 110.262 449.701 97.5188 468.27 90.7365V90.7295Z" fill="#F3E6D6"/>
<path d="M163.42 351.912C150.372 341.535 37.6204 192.387 15.2452 162.716C12.7693 159.409 11.3962 157.598 11.3962 157.598C11.3962 157.598 36.5604 149.959 55.919 134.674C75.2776 119.389 100.449 98.3754 143.036 90.7295C182.956 83.568 233.099 96.557 239.211 98.1999L238.592 100.433C275.758 161.151 312.505 225.8 354.053 283.689C354.053 283.689 325.012 277.96 280.489 291.328C235.959 304.703 172.078 354.377 164.33 352.46C164.117 352.404 163.825 352.228 163.42 351.905V351.912ZM199.17 232.112L152.705 178.619C130.365 183.035 113.234 195.912 95.8244 210.41L139.152 266.501C162.381 251.216 172.064 241.668 199.163 232.112H199.17Z" fill="#F3E6D6"/>
<path d="M357.881 306.809C349.244 308.564 336.779 308.01 303.711 316.168C283.036 321.272 262.376 330.519 243.757 340.756L241.181 336.283C261.586 324.685 284.587 312.286 299.841 308.522C320.708 303.362 351.514 302.695 357.568 302.618C357.625 303.629 357.646 304.64 357.646 305.658L357.881 306.802V306.809Z" fill="#9F9B9A"/>
<path d="M243.757 340.756C220.507 353.499 200.451 367.752 187.559 377.3C164.33 394.495 160.453 396.404 152.712 388.766C98.8339 322.719 45.6528 261.453 2.23279 188.301C5.39164 186.005 12.4137 181.898 16.2128 179.3C15.6721 183.505 14.235 187.613 11.3892 191.987C11.3892 191.987 55.9119 253.119 81.0832 289.425C106.247 325.724 160.453 384.946 160.453 384.946C160.453 384.946 190.071 364.887 212.723 352.467C220.507 348.205 230.495 342.342 241.181 336.283L243.757 340.756Z" fill="#8F5432"/>
<path d="M152.712 178.612L199.177 232.105C172.071 241.661 162.395 251.209 139.166 266.494L95.8389 210.403C113.241 195.905 130.373 183.028 152.72 178.612H152.712Z" fill="#8F5432"/>
<path d="M16.2057 179.3C16.8673 174.161 16.2057 168.867 15.2381 162.716C37.6204 192.387 150.364 341.535 163.412 351.912C162.601 364.733 161.228 372.014 160.453 384.946C160.453 384.946 106.247 325.724 81.0831 289.425C55.919 253.126 11.3892 191.987 11.3892 191.987C14.235 187.613 15.665 183.506 16.2128 179.3H16.2057Z" fill="#F3E6D6"/>
<path d="M240.42 96.2551C231.107 93.6363 221.524 91.7757 211.976 90.203C192.66 87.0154 172.782 85.2391 153.232 87.1418C132.777 89.1358 112.707 95.5039 94.6507 105.151C80.4572 112.733 67.7933 122.479 55.2433 132.406C42.2948 142.65 26.6784 150.633 10.7917 155.485C9.54664 155.864 8.56483 157.521 9.46126 158.714C14.8541 165.883 20.2682 173.044 25.6824 180.199C38.4459 197.07 51.2449 213.914 64.0938 230.722C79.2762 250.592 94.5084 270.426 109.876 290.148C122.355 306.163 134.855 322.185 147.818 337.828C151.51 342.279 155.195 346.773 159.208 350.957C161.869 353.731 163.832 355.507 167.902 354.075C171.779 352.706 175.408 350.536 178.944 348.479C184.436 345.284 189.822 341.914 195.207 338.551C209.216 329.824 223.217 321.076 237.667 313.072C252.174 305.033 267.164 297.478 283.179 292.837C301.122 287.635 319.833 284.461 338.572 284.686C342.72 284.735 347.807 285.009 351.414 285.5C352.944 285.704 354.196 286.09 355.605 285.311C361.702 281.926 367.436 277.658 373.363 273.979C397.794 258.785 422.894 244.09 449.353 232.576C455.578 229.865 461.924 227.366 468.42 225.351C476.196 222.943 484.228 221.693 492.246 220.345C511.612 217.094 531.419 215.135 550.457 210.249C556.555 208.683 562.716 206.724 568.116 203.445C569.154 202.813 569.51 201.501 568.913 200.44C557.024 179.335 544.638 158.49 531.91 137.862C509.897 102.188 485.018 68.3886 463.155 32.6234C456.93 22.4359 450.783 12.1852 445.013 1.7449C444.572 0.944502 443.398 0.424948 442.501 0.733874C434.142 3.59846 425.555 5.90838 416.982 8.04277C398.064 12.7609 378.741 16.2855 359.254 17.5633C351.115 18.0969 343.197 18.6586 335.236 20.5402C327.218 22.4359 319.441 25.2022 311.921 28.5161C296.213 35.4389 281.613 44.9594 268.829 56.2984C255.816 67.841 244.298 81.6724 237.674 97.7857C236.6 100.405 240.904 101.542 241.964 98.9512C247.763 84.8389 257.787 72.6012 268.893 62.2031C281.094 50.7798 295.181 41.2382 310.342 34.0557C317.727 30.5522 325.411 27.6525 333.329 25.5462C341.205 23.454 349.045 22.5412 357.17 22.0778C376.144 21.0036 395.005 17.788 413.474 13.4139C423.634 11.0057 433.808 8.34468 443.69 4.96054C442.85 4.62353 442.011 4.28652 441.178 3.94951C456.667 31.9564 473.962 59.1489 492.253 85.4427C513.376 115.816 532.835 147.193 551.51 179.089C556.085 186.911 560.638 194.746 565.085 202.638C565.348 201.634 565.618 200.637 565.882 199.633C559.422 203.551 551.88 205.488 544.552 207.124C534.62 209.336 524.525 210.838 514.465 212.39C495.498 215.311 476.196 217.417 458.168 224.242C428.294 235.553 400.298 252.129 373.256 268.839C366.426 273.066 359.61 277.342 352.93 281.786C353.499 281.709 354.075 281.639 354.644 281.561C350.56 280.761 346.313 280.515 342.158 280.361C331.031 279.94 319.868 280.852 308.883 282.565C294.946 284.742 281.059 288.175 267.975 293.427C256.762 297.927 245.977 303.418 235.426 309.266C216.11 319.974 197.762 332.19 178.787 343.445C175.785 345.228 172.754 346.997 169.609 348.542C168.62 349.027 167.674 349.483 166.721 349.82C166.379 349.939 166.031 350.052 165.682 350.157C165.021 350.354 165.106 350.164 164.942 350.311C164.715 350.522 164.978 350.417 164.843 350.311C166.081 351.231 165.063 350.283 165.056 350.368C165.056 350.332 164.743 350.164 164.707 350.129C165.284 350.747 164.772 350.171 164.594 350.01C163.783 349.265 163 348.5 162.239 347.7C155.672 340.819 149.753 333.285 143.784 325.906C134.286 314.167 124.951 302.295 115.667 290.394C93.9535 262.562 72.5103 234.527 51.1382 206.436C42.9067 195.61 34.6823 184.769 26.4792 173.922C23.7472 170.306 21.0153 166.69 18.2833 163.067C16.8319 161.144 15.4873 159.016 13.8723 157.219C13.666 156.987 13.4952 156.713 13.3031 156.468L11.9727 159.697C25.0136 155.716 37.8198 149.587 49.1746 142.173C56.0259 137.7 62.2226 132.357 68.704 127.4C75.1213 122.493 81.7378 117.824 88.6602 113.618C105.991 103.094 125.193 95.8479 145.285 92.541C164.907 89.3113 185.347 90.6593 204.926 93.5099C216.437 95.1879 228.013 97.3223 239.218 100.475C241.978 101.254 243.159 97.0134 240.399 96.2411L240.42 96.2551Z" fill="#060402"/>
<path d="M236.664 101.556C266.111 149.685 294.327 198.573 325.354 245.747C334.026 258.933 342.919 271.971 352.119 284.805C353.762 287.094 357.625 284.903 355.96 282.587C323.049 236.676 294.078 188.182 265.015 139.856C256.883 126.326 248.737 112.811 240.499 99.3444C239.019 96.9292 235.17 99.1338 236.657 101.563L236.664 101.556Z" fill="#060402"/>
<path d="M12.8904 162.042C13.6872 167.034 14.4912 172.096 14.1781 177.165C13.8722 182.136 12.1434 186.7 9.46118 190.884C7.92444 193.279 11.7734 195.49 13.303 193.103C16.3338 188.378 18.1836 183.189 18.5962 177.608C19.0089 172.012 18.0627 166.388 17.1805 160.877C16.9884 159.697 15.5085 159.065 14.4414 159.339C13.175 159.669 12.6983 160.877 12.8833 162.042H12.8904Z" fill="#060402"/>
<path d="M16.0706 176.716C11.2327 180.164 5.93948 182.951 1.10159 186.398C0.126904 187.093 -0.356881 188.301 0.304771 189.403C33.9494 245.979 75.0287 297.598 116.784 348.472C127.335 361.327 137.928 374.155 148.451 387.039C152.876 392.452 157.842 397.058 165.298 394.333C169.581 392.768 173.423 390.121 177.136 387.558C182.551 383.816 187.787 379.828 193.109 375.952C203.154 368.629 213.413 361.594 223.95 354.973C249.868 338.699 277.558 324.678 307.553 317.502C319.32 314.687 331.209 312.328 343.232 310.874C349.052 310.172 355.142 309.976 360.798 308.368C365.821 306.943 369.94 303.839 374.344 301.199C383.088 295.948 392.074 291.082 401.173 286.455C412.855 280.515 424.779 274.976 437.016 270.229C448.62 265.729 460.366 262.415 472.525 259.796C495.654 254.818 518.677 249.216 541.493 243.009C549.895 240.72 558.34 238.431 566.558 235.539C570.72 234.071 578.41 231.768 574.035 225.913C572.057 223.266 568.663 221.658 565.647 220.45C562.993 219.39 561.841 223.638 564.466 224.684C563.882 224.452 565.184 225.007 565.419 225.119C566.245 225.512 567.048 225.934 567.831 226.411C568.656 226.91 569.574 227.457 570.207 228.209C570.257 228.265 571.218 229.767 571.089 228.855C571.104 228.953 571.274 228.819 570.805 229.051C570.485 229.206 570.172 229.395 569.852 229.55C568.898 230.02 567.966 230.364 566.942 230.743C559.429 233.531 551.638 235.651 543.919 237.785C521.672 243.943 499.204 249.419 476.651 254.404C465.503 256.868 454.511 259.27 443.718 263.075C431.602 267.344 419.799 272.49 408.238 278.051C398.27 282.846 388.467 287.986 378.869 293.455C373.583 296.467 368.51 300.273 363.011 302.884C358.877 304.85 354.075 305.279 349.536 305.777C340.422 306.781 331.358 308.031 322.358 309.786C307.617 312.658 293.089 316.33 279.081 321.736C265.264 327.065 251.953 333.594 239.076 340.847C227.351 347.447 215.975 354.65 204.89 362.247C195.172 368.91 185.845 376.086 176.212 382.861C172.491 385.473 168.592 388.372 164.309 390.043C162.096 390.907 159.955 391.223 157.813 390.079C153.452 387.741 150.606 382.735 147.583 379.035C142.467 372.793 137.345 366.558 132.215 360.323C91.6981 311.057 51.0954 261.65 16.8389 207.834C12.4991 201.016 8.27305 194.135 4.14662 187.199C3.88338 188.203 3.61303 189.2 3.34979 190.204C8.18767 186.756 13.4809 183.969 18.3188 180.522C20.6239 178.886 18.4041 175.066 16.0706 176.73V176.716Z" fill="#060402"/>
<path d="M352.154 284.201C354.303 291.18 355.405 298.37 355.42 305.664C355.42 308.494 359.88 308.494 359.873 305.664C359.859 298.004 358.706 290.359 356.451 283.036C355.619 280.34 351.322 281.491 352.161 284.201H352.154Z" fill="#060402"/>
<path d="M60.3016 167.048C80.9337 149.748 102.967 131.592 130.38 126.663C133.197 126.158 132.002 121.924 129.199 122.43C101.039 127.499 78.3441 146.182 57.157 163.945C54.9728 165.777 58.1317 168.874 60.3087 167.055L60.3016 167.048Z" fill="#060402"/>
<path d="M70.0699 182.488C88.4111 167.877 108.659 156.11 130.152 146.617C150.777 137.504 172.355 131.508 194.994 130.16C207.202 129.43 219.603 129.956 231.491 132.975C234.266 133.677 235.454 129.444 232.672 128.742C210.745 123.174 186.94 125.126 165.092 130.054C142.361 135.18 120.562 145.094 100.435 156.566C88.653 163.278 77.4974 170.959 66.9181 179.391C64.6913 181.168 67.8572 184.257 70.0699 182.502V182.488Z" fill="#060402"/>
<path d="M83.3455 198.046C107.137 174.708 137.452 158.209 170.086 150.591C179.349 148.428 188.769 147.01 198.259 146.329C201.098 146.126 201.127 141.73 198.259 141.934C163.79 144.398 130.202 156.468 102.206 176.478C94.3944 182.059 87.0308 188.224 80.1938 194.936C78.159 196.93 81.3036 200.04 83.3455 198.046Z" fill="#060402"/>
<path d="M152.122 176.498C129.69 181.048 111.405 194.592 94.2593 208.851C93.5834 209.413 93.3557 210.796 93.9107 211.512C106.553 227.878 119.196 244.244 131.838 260.617C133.638 262.948 135.438 265.279 137.238 267.61C137.935 268.509 139.188 269.12 140.283 268.397C149.795 262.127 158.937 255.316 168.571 249.222C178.382 243.016 188.811 238.115 199.768 234.225C201.404 233.643 201.881 231.859 200.75 230.553C187.189 214.946 173.636 199.338 160.076 183.73C158.148 181.504 156.213 179.286 154.285 177.06C152.413 174.912 149.283 178.029 151.133 180.17C164.693 195.778 178.246 211.386 191.807 226.994C193.735 229.219 195.67 231.438 197.598 233.664L198.58 229.992C187.474 233.93 176.823 238.831 166.856 245.087C157.024 251.258 147.718 258.216 138.035 264.598C139.052 264.858 140.063 265.125 141.08 265.385C128.437 249.019 115.795 232.653 103.152 216.28C101.352 213.949 99.5525 211.618 97.7525 209.287C97.6387 210.171 97.5177 211.063 97.4039 211.948C113.988 198.151 131.618 185.12 153.303 180.725C156.106 180.156 154.918 175.923 152.122 176.491V176.498Z" fill="#060402"/>
<path d="M180.409 180.732C199.576 173.15 218.863 165.588 239.83 165.525C242.697 165.518 242.697 161.123 239.83 161.13C218.436 161.186 198.786 168.754 179.221 176.492C176.596 177.531 177.741 181.785 180.402 180.725L180.409 180.732Z" fill="#060402"/>
<path d="M198.167 202.168C215.413 191.84 235.148 186.124 255.318 185.668C258.178 185.605 258.192 181.21 255.318 181.273C234.38 181.743 213.819 187.648 195.919 198.376C193.471 199.844 195.705 203.642 198.167 202.168Z" fill="#060402"/>
<path d="M151.78 284.587C180.082 260.898 213.94 243.142 249.271 232.112C259.068 229.051 269.035 226.545 279.138 224.677C281.948 224.157 280.76 219.924 277.957 220.443C240.79 227.317 204.862 242.538 173.409 263.138C164.8 268.776 156.519 274.891 148.636 281.484C146.444 283.317 149.61 286.413 151.787 284.594L151.78 284.587Z" fill="#060402"/>
<path d="M158.795 299.233C189.694 276.506 224.946 258.469 262.162 248.303C272.614 245.445 283.264 243.248 294.035 241.949C296.846 241.612 296.881 237.21 294.035 237.554C254.685 242.3 216.857 257.697 183.106 277.826C173.971 283.275 165.106 289.144 156.554 295.435C154.285 297.106 156.497 300.918 158.802 299.226L158.795 299.233Z" fill="#060402"/>
<path d="M173.11 316.035C205.026 294.269 241.054 277.384 277.857 265.427C287.824 262.19 297.927 259.368 308.179 257.149C310.975 256.545 309.794 252.305 306.998 252.915C287.967 257.03 269.398 263.18 251.348 270.37C232.9 277.721 214.886 286.188 197.555 295.842C188.427 300.925 179.491 306.353 170.869 312.236C168.528 313.83 170.748 317.642 173.117 316.028L173.11 316.035Z" fill="#060402"/>
<path d="M213.904 218.829C230.104 210.558 247.791 205.299 265.933 203.424C268.757 203.137 268.786 198.734 265.933 199.029C246.966 200.988 228.596 206.38 211.656 215.03C209.109 216.329 211.357 220.121 213.904 218.822V218.829Z" fill="#060402"/>
<path d="M271.411 102.019C290.749 84.3264 311.566 66.7879 337.185 58.8962C339.91 58.0537 338.75 53.813 336.004 54.6625C309.631 62.7859 288.187 80.6895 268.267 98.9162C266.161 100.84 269.312 103.943 271.418 102.026L271.411 102.019Z" fill="#060402"/>
<path d="M280.148 119.066C300.104 99.6463 324.251 84.6493 350.66 75.3745C353.342 74.4337 352.182 70.186 349.479 71.1408C322.337 80.6754 297.514 95.9953 277.003 115.963C274.961 117.95 278.106 121.06 280.155 119.073L280.148 119.066Z" fill="#060402"/>
<path d="M293.679 136.233C304.664 125.315 317.207 116.09 330.938 108.802C333.464 107.461 331.216 103.669 328.69 105.01C314.646 112.467 301.769 121.966 290.535 133.13C288.514 135.138 291.659 138.248 293.687 136.24L293.679 136.233Z" fill="#060402"/>
<path d="M305.838 157.738C324.834 141 347.131 128.096 371.206 119.916C373.903 119.003 372.743 114.756 370.025 115.682C345.196 124.122 322.28 137.37 302.694 154.635C300.552 156.524 303.711 159.62 305.845 157.745L305.838 157.738Z" fill="#060402"/>
<path d="M467.673 88.6159C448.727 95.5106 429.162 101.163 409.668 106.351C408.373 106.695 407.078 107.039 405.769 107.348C405.364 107.446 404.958 107.531 404.553 107.622C404.46 107.643 404.218 107.636 404.147 107.699C404.389 107.481 404.766 107.84 405.171 107.952C406.915 108.457 405.662 108.324 405.634 107.924C405.605 107.496 405.378 107.608 405.171 107.334C404.403 106.344 403.649 105.34 402.895 104.336C397.132 96.655 391.533 88.8476 386.069 80.963C379.061 70.8527 372.025 60.602 366.269 49.7264C365.828 50.8006 365.38 51.8749 364.939 52.9561C383.949 48.4346 402.966 43.913 421.976 39.3914C424.694 38.7455 427.412 38.0996 430.129 37.4536C429.29 37.1166 428.45 36.7796 427.618 36.4426L461.469 84.8878C463.091 87.2117 464.713 89.5287 466.335 91.8526C467.95 94.1626 471.813 91.972 470.177 89.634C458.893 73.4856 447.61 57.3372 436.326 41.1888C434.704 38.8649 433.082 36.5479 431.46 34.224C430.876 33.3885 429.966 32.9742 428.948 33.2129C409.938 37.7345 390.921 42.256 371.911 46.7776C369.193 47.4235 366.476 48.0695 363.758 48.7154C362.299 49.0594 361.787 50.7304 362.427 51.9451C367.657 61.8166 373.967 71.1546 380.285 80.3662C386.133 88.8827 392.145 97.301 398.327 105.579C399.679 107.39 400.974 109.602 402.617 111.175C404.04 112.537 405.819 111.863 407.519 111.441C416.306 109.279 425 106.653 433.672 104.083C445.468 100.587 457.3 97.0552 468.861 92.8496C471.529 91.8807 470.376 87.633 467.68 88.6159H467.673Z" fill="#060402"/>
<path d="M322.892 177.538C355.028 147.881 399.053 136.289 440.075 123.988C453.92 119.839 467.765 115.682 481.61 111.533C484.342 110.712 483.175 106.471 480.429 107.299C456.489 114.482 432.456 121.419 408.622 128.945C388.118 135.426 367.678 142.77 348.938 153.364C338.451 159.297 328.583 166.283 319.747 174.435C317.648 176.372 320.8 179.476 322.899 177.545L322.892 177.538Z" fill="#060402"/>
<path d="M333.898 198.903C363.502 162.035 414.008 155.464 457.058 143.823C470.59 140.165 483.929 135.812 496.615 129.858C499.204 128.643 496.942 124.852 494.366 126.066C450.84 146.491 399.971 146.779 358.415 172.026C347.942 178.394 338.409 186.258 330.754 195.792C328.989 197.983 332.12 201.114 333.905 198.903H333.898Z" fill="#060402"/>
<path d="M348.177 215.458C376.35 186.974 416.832 177.102 454.71 168.066C466.627 165.223 478.551 162.358 490.304 158.904C493.043 158.096 491.876 153.856 489.123 154.67C449.296 166.374 406.602 171.324 370.389 192.773C361.161 198.243 352.56 204.744 345.032 212.355C343.026 214.377 346.178 217.487 348.184 215.465L348.177 215.458Z" fill="#060402"/>
<path d="M361.737 234.689C379.694 221.307 399.907 211.133 421.457 204.723C424.196 203.909 423.029 199.668 420.276 200.489C398.377 207.005 377.745 217.298 359.489 230.898C357.234 232.583 359.446 236.395 361.737 234.689Z" fill="#060402"/>
<path d="M14.7118 180.128C15.2311 180.781 14.5126 179.869 14.9821 180.472C15.3307 180.915 15.6722 181.364 16.0208 181.806C17.1236 183.232 18.2264 184.664 19.3291 186.089C22.9789 190.814 26.6215 195.547 30.2641 200.279C41.6047 215.002 52.931 229.739 64.2645 244.469C77.6896 261.923 91.1076 279.378 104.526 296.825C116.257 312.082 127.996 327.346 139.743 342.602C145.833 350.508 151.887 358.442 158.027 366.305C158.311 366.67 158.596 367.035 158.888 367.4C159.521 368.194 160.773 368.145 161.584 367.745C170.129 363.525 178.453 358.807 186.677 354.011C203.161 344.4 218.813 333.503 235.22 323.779C251.668 314.027 268.829 305.124 286.992 298.882C295.601 295.926 304.487 293.532 313.536 292.325C322.451 291.138 331.6 291.033 340.586 290.927C343.453 290.892 346.32 290.885 349.187 291.005C350.077 291.04 350.966 291.089 351.855 291.166C352.595 291.229 353.164 291.292 353.385 291.328C353.776 291.398 354.153 291.475 354.537 291.566C355.192 291.721 354.587 291.489 354.658 291.601C354.31 291.082 353.221 290.085 354.068 288.919C352.787 290.682 355.327 293.167 357.113 291.924C381.772 274.73 407.911 259.859 435.259 247.257C451.985 239.547 469.288 233.207 487.287 229.051C506.426 224.635 526.083 222.893 545.442 219.629C551.453 218.618 557.728 217.803 563.577 216.027C566.309 215.198 565.142 210.951 562.396 211.793C557.871 213.169 553.047 213.857 548.408 214.679C530.01 217.937 511.32 219.643 493.008 223.329C474.446 227.064 456.524 233.06 439.236 240.664C422.51 248.022 406.082 256.222 390.352 265.483C378.264 272.595 366.376 280.122 354.879 288.14L357.924 291.145C358.835 289.888 357.867 288.351 356.722 287.712C354.85 286.673 352.133 286.764 350.077 286.659C343.403 286.308 336.687 286.567 330.021 286.827C320.373 287.206 310.925 287.929 301.506 290.113C281.77 294.684 263.059 303.284 245.393 312.924C227.685 322.592 211.194 334.079 193.991 344.54C182.707 351.4 171.217 358.091 159.357 363.953C160.254 364.066 161.157 364.185 162.054 364.297C161.534 363.644 162.253 364.557 161.783 363.953C161.435 363.511 161.093 363.061 160.745 362.619C159.642 361.194 158.539 359.762 157.436 358.336C153.787 353.611 150.144 348.879 146.501 344.147C135.161 329.424 123.834 314.687 112.501 299.956C99.0759 282.502 85.6579 265.048 72.2399 247.601C60.508 232.344 48.769 217.08 37.0229 201.823C30.9329 193.918 24.8784 185.984 18.7386 178.12C18.454 177.755 18.1694 177.39 17.8777 177.025C16.1062 174.806 12.9758 177.931 14.726 180.135L14.7118 180.128Z" fill="#060402"/>
<path d="M13.3387 188.322C18.3615 195.259 23.484 202.125 28.578 209.006C39.0292 223.118 49.5374 237.202 60.0811 251.244C72.745 268.109 85.48 284.924 98.3431 301.649C110.039 316.856 121.807 332.008 133.909 346.906C141.301 356.012 148.621 365.687 157.294 373.663C157.806 374.134 158.333 374.597 158.881 375.032C159.457 375.496 160.275 375.903 161.043 375.594C165.191 373.951 169.168 371.796 173.117 369.753C188.413 361.833 203.546 353.436 218.251 344.498C236.088 333.657 253.276 321.68 271.831 312.047C279.991 307.813 288.465 304.05 297.372 301.649C306.614 299.156 316.083 298.966 325.595 298.475C335.527 297.969 345.466 297.766 355.398 297.345C356.949 297.281 357.867 296.537 359.141 295.716C362.982 293.237 366.86 290.801 370.751 288.4C401.116 269.654 432.698 251.926 467.16 241.668C483.623 236.767 500.478 233.713 517.446 231.087C532.273 228.791 547.185 226.341 561.456 221.623C562.211 221.37 562.972 221.124 563.712 220.843C566.358 219.846 565.213 215.592 562.531 216.61C551.119 220.921 538.711 223.231 526.716 225.203C510.972 227.801 495.185 229.964 479.668 233.734C443.17 242.609 410.009 259.677 378.058 278.802C372.679 282.025 367.329 285.304 362.029 288.653C360.386 289.692 358.749 290.731 357.113 291.784C356.864 291.945 354.979 292.886 354.95 293.188C354.986 292.781 356.707 293.048 355.242 292.956C354.175 292.893 353.058 292.992 351.99 293.013C346.911 293.132 341.824 293.329 336.744 293.553C327.438 293.961 318.033 294.136 308.77 295.077C300.083 295.954 291.695 298.433 283.648 301.712C264.994 309.33 248.068 320.556 231.143 331.27C214.324 341.914 197.128 351.891 179.591 361.341C173.145 364.817 166.671 368.271 159.998 371.29C159.279 371.613 159.898 371.339 159.862 371.353C160.581 371.543 161.307 371.733 162.025 371.915C158.966 369.479 156.334 366.467 153.737 363.567C149.347 358.673 145.128 353.632 140.952 348.556C129.22 334.303 117.872 319.742 106.589 305.138C93.6617 288.4 80.8769 271.549 68.1632 254.657C57.2282 240.13 46.3501 225.562 35.5218 210.958C29.6167 202.996 23.7045 195.034 17.8635 187.03C17.6358 186.714 17.4082 186.398 17.1734 186.089C15.5228 183.807 11.6596 185.998 13.3315 188.308L13.3387 188.322Z" fill="#060402"/>
<path d="M564.438 224.178C557.743 226.734 550.749 228.672 543.813 230.448C536.278 232.379 528.666 233.994 521.003 235.307C511.911 236.858 502.719 237.617 493.627 239.091C479.312 241.415 465.659 245.726 452.362 251.378C438.034 257.465 423.684 263.679 409.561 270.208C391.063 278.76 373.185 288.596 357.063 301.038L358.635 300.392C347.779 300.462 336.886 301.108 326.079 302.175C317.563 303.018 309.033 304.127 300.695 306.058C294.007 307.609 287.604 310.137 281.343 312.889C265.492 319.847 250.402 328.462 235.412 337.035C221.439 345.025 207.267 352.727 193.528 361.096C181.967 368.138 170.556 375.454 159.343 383.036C160.24 383.149 161.143 383.268 162.04 383.38C142.467 361.987 123.422 340.054 105.216 317.516C93.0499 302.449 81.9868 286.715 70.8312 270.917C58.8859 253.997 46.8054 237.167 34.6822 220.366C27.5819 210.523 20.4603 200.686 13.3173 190.871C11.6596 188.596 7.79641 190.786 9.47544 193.089C27.4183 217.726 45.2473 242.454 62.87 267.323C74.0683 283.113 84.9535 299.072 96.9771 314.272C109.442 330.021 122.468 345.34 135.694 360.471C143.343 369.219 151.04 377.925 158.888 386.498C159.507 387.172 160.809 387.368 161.584 386.842C169.673 381.365 177.884 376.058 186.151 370.855C199.142 362.682 212.51 355.24 225.828 347.615C239.439 339.822 252.992 331.923 266.936 324.72C279.38 318.295 292.115 312.173 305.967 309.428C320.338 306.584 335.108 305.552 349.742 305.012C352.631 304.906 355.761 305.194 358.628 304.794C360.393 304.548 361.937 302.821 363.31 301.803C365.302 300.336 367.315 298.903 369.357 297.506C373.441 294.719 377.617 292.072 381.871 289.544C398.591 279.638 416.37 271.936 434.178 264.184C447.724 258.287 461.028 251.827 475.271 247.692C493.136 242.51 511.754 241.731 529.939 238.108C541.436 235.819 552.898 232.934 563.954 229.023C564.516 228.826 565.078 228.623 565.633 228.412C568.279 227.401 567.127 223.153 564.452 224.178H564.438Z" fill="#060402"/>
<path d="M104.881 202.512C104.469 207.918 104.056 213.324 103.643 218.73C103.579 219.552 104.397 220.261 105.194 220.261C106.084 220.261 106.681 219.559 106.745 218.73C107.158 213.324 107.571 207.918 107.983 202.512C108.047 201.69 107.229 200.981 106.432 200.981C105.543 200.981 104.945 201.683 104.881 202.512Z" fill="#060402"/>
<path d="M112.793 197.358C111.291 207.932 110.317 218.562 109.911 229.227C109.833 231.192 112.935 231.192 113.006 229.227C113.404 218.835 114.315 208.472 115.781 198.172C116.051 196.249 113.07 195.42 112.793 197.358Z" fill="#060402"/>
<path d="M187.943 221.602C188.356 226.032 187.723 230.427 186.072 234.57C185.766 235.335 186.407 236.248 187.154 236.451C188.029 236.69 188.754 236.156 189.06 235.384C190.796 231.024 191.479 226.264 191.045 221.602C190.967 220.78 190.391 220.071 189.494 220.071C188.719 220.071 187.865 220.773 187.943 221.602Z" fill="#060402"/>
<path d="M374.102 49.8812C371.939 54.6484 370.602 59.6685 370.132 64.8711C370.054 65.6925 370.901 66.4017 371.683 66.4017C372.587 66.4017 373.156 65.6996 373.234 64.8711C373.654 60.2442 374.863 55.6595 376.784 51.4188C377.126 50.6675 377.005 49.7758 376.229 49.3265C375.568 48.9474 374.451 49.1159 374.109 49.8741L374.102 49.8812Z" fill="#060402"/>
<path d="M382.59 46.9042C378.691 53.9182 376.472 61.6975 376.08 69.6875C375.981 71.6534 379.083 71.6464 379.175 69.6875C379.545 62.2452 381.63 54.9784 385.265 48.4488C386.226 46.7217 383.55 45.177 382.59 46.9042Z" fill="#060402"/>
<path d="M458.061 81.181C457.969 85.2602 457.293 89.2762 456.076 93.1729C455.486 95.0545 458.474 95.862 459.064 93.9873C460.359 89.8379 461.063 85.52 461.163 81.181C461.206 79.2151 458.111 79.2151 458.068 81.181H458.061Z" fill="#060402"/>
<path d="M454.568 75.1569C452.547 81.4969 450.534 87.844 448.513 94.1839C447.916 96.0656 450.904 96.873 451.502 94.9984C453.522 88.6584 455.535 82.3114 457.556 75.9714C458.154 74.0897 455.165 73.2823 454.568 75.1569Z" fill="#060402"/>
<path d="M448.755 68.4448C446.194 78.534 442.949 88.4407 439.044 98.1017C438.304 99.9271 441.299 100.721 442.032 98.9161C445.938 89.2552 449.182 79.3485 451.743 69.2592C452.227 67.3495 449.239 66.5351 448.755 68.4448Z" fill="#060402"/>
<path d="M148.758 199.912C145.555 202.336 144.047 204.376 143.296 205.706C141.348 206.147 139.393 207 137.52 208.418C135.647 209.835 134.306 211.477 133.369 213.22C131.873 213.59 129.486 214.499 126.283 216.923C120.664 221.176 127.572 237.719 130.236 241.146C131.341 242.568 134.825 241.999 138.647 239.95C142.828 242.881 150.762 241.53 157.891 236.542L152.191 229.208C150.594 229.411 147.997 229.553 147.092 228.388C145.76 226.674 149.506 223.839 149.506 223.839C149.506 223.839 153.251 221.004 154.583 222.717C155.489 223.882 154.677 226.32 154.064 227.791L159.764 235.124C166.494 229.622 169.873 222.411 168.088 217.666C171.084 214.555 172.544 211.381 171.439 209.959C168.776 206.532 154.376 195.659 148.758 199.912ZM135.962 236.458C134.866 236.961 133.949 237.274 133.316 237.454C130.095 232.353 127.981 222.17 129.04 220.28C130.051 219.514 130.899 219.036 131.659 218.597C130.802 225.532 134.068 232.911 135.962 236.458ZM142.555 226.378C142.059 226.754 141.442 226.934 140.841 226.879C140.24 226.823 139.704 226.537 139.351 226.083C138.632 225.157 138.862 223.731 139.892 222.951C140.389 222.575 141.005 222.395 141.606 222.451C142.207 222.506 142.743 222.793 143.096 223.247C143.842 224.207 143.585 225.599 142.555 226.378ZM153.793 217.873C153.296 218.249 152.679 218.429 152.078 218.373C151.477 218.318 150.941 218.031 150.588 217.577C149.869 216.652 150.099 215.226 151.129 214.446C151.626 214.07 152.243 213.89 152.844 213.945C153.445 214.001 153.981 214.287 154.334 214.742C155.08 215.701 154.823 217.093 153.793 217.873ZM165.366 214.202C162.386 211.477 156.011 206.451 149.002 205.47C149.628 204.86 150.316 204.176 151.327 203.41C153.452 202.89 162.87 207.545 167.027 211.937C166.706 212.48 166.162 213.273 165.366 214.202Z" fill="#FFF7ED"/>
<path d="M409.789 63.387L407.214 65.0984C404.269 64.0192 396.358 61.5794 391.517 64.3384C391.517 64.3384 391.056 72.604 399.635 78.3932C399.51 80.7082 399.334 81.9708 400.368 84.0583L396.819 86.8649L398.405 88.6103L401.647 86.0599L402.771 87.3384L400.72 91.0489L402.724 92.3129L404.593 88.8417C409.807 92.4664 417.148 91.635 424.026 87.7149C430.904 83.7949 435.303 77.9357 434.728 71.667L438.709 71.8044L438.601 69.4598L434.319 69.359L433.759 67.7586L437.617 66.2625L436.878 64.0343L432.641 65.665C431.325 63.7385 430.129 63.2576 428.035 62.2071C427.242 51.9805 419.757 48.2443 419.757 48.2443C414.916 51.0033 413.104 58.984 412.579 62.0405L409.789 63.387ZM407.297 72.9177C407.832 72.6128 408.47 72.534 409.071 72.6986C409.672 72.8632 410.186 73.2578 410.501 73.7955C410.816 74.3331 410.905 74.9699 410.749 75.5657C410.593 76.1615 410.205 76.6675 409.67 76.9724C409.135 77.2773 408.497 77.3561 407.896 77.1915C407.296 77.0269 406.781 76.6323 406.467 76.0946C406.152 75.5569 406.063 74.9202 406.219 74.3244C406.374 73.7286 406.762 73.2226 407.297 72.9177ZM419.4 66.0202C419.935 65.7154 420.573 65.6365 421.174 65.8012C421.774 65.9658 422.289 66.3603 422.603 66.898C422.918 67.4357 423.007 68.0724 422.852 68.6682C422.696 69.264 422.308 69.77 421.773 70.0749C421.238 70.3798 420.6 70.4586 419.999 70.294C419.398 70.1294 418.884 69.7348 418.569 69.1971C418.255 68.6595 418.165 68.0227 418.321 67.4269C418.477 66.8311 418.865 66.3251 419.4 66.0202ZM414.891 76.7005L418.925 74.4014L419.162 78.0241C420.325 79.0917 422.012 79.4007 423.404 78.6075C424.206 78.1502 424.788 77.3912 425.022 76.4975C425.256 75.6038 425.122 74.6487 424.65 73.8422L425.658 73.2674C426.288 74.3427 426.466 75.6163 426.155 76.8079C425.843 77.9994 425.067 79.0114 423.997 79.6212C422.484 80.4834 420.687 80.3994 419.281 79.6056C419.275 81.2041 418.45 82.7825 416.937 83.6447C415.867 84.2545 414.591 84.4121 413.39 84.0829C412.188 83.7537 411.159 82.9646 410.53 81.8892L411.539 81.3144C412.011 82.121 412.782 82.7128 413.683 82.9597C414.584 83.2066 415.541 83.0884 416.344 82.6311C417.736 81.8378 418.308 80.2412 417.952 78.7138L414.891 76.7005Z" fill="#8F5432"/>
</svg>
