<svg width="15" height="21" viewBox="0 0 15 21" fill="none" xmlns="http://www.w3.org/2000/svg">
<path fill-rule="evenodd" clip-rule="evenodd" d="M13.5 12.5C13.6704 12.4999 13.8379 12.4563 13.9867 12.3733C14.1355 12.2902 14.2606 12.1706 14.3502 12.0256C14.4398 11.8806 14.4908 11.7152 14.4985 11.545C14.5061 11.3748 14.4702 11.2054 14.394 11.053L12.618 7.5L14.394 3.947C14.4702 3.79458 14.5061 3.62522 14.4985 3.45501C14.4908 3.28479 14.4398 3.11935 14.3502 2.97439C14.2606 2.82944 14.1355 2.70977 13.9867 2.62674C13.8379 2.54372 13.6704 2.50009 13.5 2.5H2.5V1.5C2.5 1.23478 2.39464 0.98043 2.20711 0.792893C2.01957 0.605357 1.76522 0.5 1.5 0.5C1.23478 0.5 0.98043 0.605357 0.792893 0.792893C0.605357 0.98043 0.5 1.23478 0.5 1.5V19.5C0.5 19.7652 0.605357 20.0196 0.792893 20.2071C0.98043 20.3946 1.23478 20.5 1.5 20.5C1.76522 20.5 2.01957 20.3946 2.20711 20.2071C2.39464 20.0196 2.5 19.7652 2.5 19.5V12.5H13.5Z" fill="#744D24"/>
</svg>
