<svg width="76" height="53" viewBox="0 0 76 53" fill="none" xmlns="http://www.w3.org/2000/svg">
<path fill-rule="evenodd" clip-rule="evenodd" d="M20.801 6.60492C17.3856 7.20222 14.443 9.30167 12.8324 11.0561C11.7635 12.2205 9.95313 12.2979 8.7888 11.229C7.62447 10.1601 7.54709 8.34975 8.61596 7.18542C10.8465 4.75564 14.8565 1.83399 19.8149 0.966814C24.9837 0.0628549 30.8351 1.4622 36.2317 7.1512C37.3195 8.29789 37.2717 10.1093 36.1251 11.197C34.9784 12.2848 33.167 12.237 32.0792 11.0904C27.9497 6.73717 24.006 6.04439 20.801 6.60492Z" fill="white"/>
<path fill-rule="evenodd" clip-rule="evenodd" d="M53.1759 6.60492C49.7605 7.20222 46.8179 9.30167 45.2072 11.0561C44.1384 12.2205 42.328 12.2979 41.1637 11.229C39.9994 10.1601 39.922 8.34975 40.9908 7.18542C43.2214 4.75564 47.2313 1.83399 52.1898 0.966814C57.3586 0.0628549 63.2099 1.4622 68.6066 7.1512C69.6944 8.29789 69.6466 10.1093 68.4999 11.197C67.3532 12.2848 65.5419 12.237 64.4541 11.0904C60.3246 6.73717 56.3809 6.04439 53.1759 6.60492Z" fill="white"/>
<path fill-rule="evenodd" clip-rule="evenodd" d="M31.1779 45.6543C24.1135 47.9846 18.5397 46.5558 14.4882 43.7991C9.32668 40.2871 6.40168 34.4722 6.06449 30.3582C5.93538 28.7829 4.5537 27.6106 2.97843 27.7397C1.40317 27.8688 0.230826 29.2505 0.359939 30.8257C0.841916 36.7062 4.71238 44.0704 11.2683 48.5312C17.7272 52.9259 26.6021 54.3868 37.0343 49.4566C41.2192 52.1322 47.889 53.7421 54.7398 52.1013C62.7719 50.1776 70.6987 43.9022 75.4826 30.6455C76.0191 29.1588 75.2488 27.5187 73.7621 26.9822C72.2754 26.4457 70.6353 27.216 70.0988 28.7027C65.8513 40.4729 59.2506 45.1354 53.4067 46.5351C49.5647 47.4552 45.8891 47.0161 43.0741 46.038C50.9115 40.8606 54.6342 35.0089 55.0516 29.9188C55.2972 26.9241 54.3593 24.0872 52.2013 22.2853C49.9984 20.4458 47.0256 20.1059 44.1532 21.1654L44.0163 21.2159L37.2589 24.5242L29.7069 21.1267L29.4368 21.0636C24.4673 19.9026 19.3077 23.7344 19.474 29.7291C19.6091 34.5962 23.1502 40.1189 31.1779 45.6543ZM37.3593 42.83C46.3382 37.7332 49.1 32.4639 49.3471 29.451C49.4759 27.8803 48.9595 27.035 48.5327 26.6787C48.1633 26.3702 47.4564 26.0844 46.2563 26.4921L37.3617 30.8466L27.9214 26.5997C26.694 26.4513 25.135 27.3894 25.1955 29.5703C25.2638 32.0315 27.5459 36.917 37.3593 42.83Z" fill="white"/>
</svg>
