<svg width="48" height="48" viewBox="0 0 48 48" fill="none" xmlns="http://www.w3.org/2000/svg">
<g clip-path="url(#clip0_114_1889)">
<path d="M27.6673 13.3333C30.6128 13.3333 33.0007 10.9455 33.0007 8.00001C33.0007 5.05449 30.6128 2.66667 27.6673 2.66667C24.7218 2.66667 22.334 5.05449 22.334 8.00001C22.334 10.9455 24.7218 13.3333 27.6673 13.3333Z" fill="#8F5432"/>
<path d="M33.1205 34.9733C32.9732 34.8742 32.8076 34.8055 32.6333 34.7713C32.4591 34.7371 32.2798 34.738 32.1059 34.774C31.932 34.81 31.7671 34.8804 31.6208 34.9811C31.4745 35.0817 31.3497 35.2105 31.2539 35.36C29.9649 37.2689 28.3859 38.9648 26.5739 40.3867C26.1339 40.72 24.4939 41.9867 23.8005 41.72C23.3205 41.5733 23.6005 40.6267 23.6939 40.2267L24.4005 38.1333C24.6939 37.28 29.8005 22.1333 30.3605 20.4C31.1872 17.8667 30.8272 15.3733 27.0539 15.9733C26.0272 16.08 15.6139 17.4267 15.4272 17.44C15.2521 17.4514 15.081 17.4971 14.9236 17.5747C14.7662 17.6522 14.6256 17.7599 14.5098 17.8918C14.394 18.0237 14.3054 18.177 14.2489 18.3432C14.1924 18.5093 14.1692 18.6849 14.1805 18.86C14.1919 19.0351 14.2377 19.2062 14.3152 19.3636C14.3927 19.5211 14.5005 19.6617 14.6324 19.7774C14.7642 19.8932 14.9176 19.9818 15.0837 20.0383C15.2498 20.0948 15.4255 20.118 15.6005 20.1067C15.6005 20.1067 19.6005 19.5867 20.0405 19.5467C20.2659 19.5247 20.4928 19.5683 20.6939 19.6724C20.895 19.7765 21.0617 19.9366 21.1739 20.1333C21.4155 20.8802 21.3824 21.6887 21.0805 22.4133C20.7339 23.7467 15.2539 39.1867 15.0805 40.08C14.8946 40.8276 14.9463 41.6145 15.2282 42.3313C15.5102 43.0482 16.0085 43.6594 16.6539 44.08C17.8652 44.8874 19.3075 45.276 20.7605 45.1867C22.1734 45.1703 23.5708 44.89 24.8805 44.36C28.2005 43.0267 31.6672 39.48 33.4939 36.6933C33.6512 36.4102 33.7 36.0795 33.6313 35.763C33.5626 35.4465 33.3811 35.1658 33.1205 34.9733Z" fill="#8F5432"/>
</g>
<defs>
<clipPath id="clip0_114_1889">
<rect width="48" height="48" fill="white"/>
</clipPath>
</defs>
</svg>
