<svg width="28" height="28" viewBox="0 0 28 28" fill="none" xmlns="http://www.w3.org/2000/svg">
<path d="M19.6971 0.306885C21.7026 0.306885 23.6259 1.10356 25.044 2.52166C26.4621 3.93976 27.2588 5.86311 27.2588 7.8686V19.9674C27.2588 21.9728 26.4621 23.8962 25.044 25.3143C23.6259 26.7324 21.7026 27.5291 19.6971 27.5291H7.59834C5.59285 27.5291 3.66949 26.7324 2.2514 25.3143C0.8333 23.8962 0.0366211 21.9728 0.0366211 19.9674V7.8686C0.0366211 5.86311 0.8333 3.93976 2.2514 2.52166C3.66949 1.10356 5.59285 0.306885 7.59834 0.306885H19.6971ZM13.6477 7.8686C12.0433 7.8686 10.5046 8.50595 9.37016 9.64042C8.23568 10.7749 7.59834 12.3136 7.59834 13.918C7.59834 15.5224 8.23568 17.0611 9.37016 18.1955C10.5046 19.33 12.0433 19.9674 13.6477 19.9674C15.2521 19.9674 16.7908 19.33 17.9253 18.1955C19.0597 17.0611 19.6971 15.5224 19.6971 13.918C19.6971 12.3136 19.0597 10.7749 17.9253 9.64042C16.7908 8.50595 15.2521 7.8686 13.6477 7.8686ZM13.6477 10.8933C14.4499 10.8933 15.2192 11.212 15.7865 11.7792C16.3537 12.3464 16.6724 13.1158 16.6724 13.918C16.6724 14.7202 16.3537 15.4895 15.7865 16.0568C15.2192 16.624 14.4499 16.9427 13.6477 16.9427C12.8455 16.9427 12.0762 16.624 11.5089 16.0568C10.9417 15.4895 10.623 14.7202 10.623 13.918C10.623 13.1158 10.9417 12.3464 11.5089 11.7792C12.0762 11.212 12.8455 10.8933 13.6477 10.8933ZM20.4533 5.60009C20.0522 5.60009 19.6675 5.75942 19.3839 6.04304C19.1003 6.32666 18.9409 6.71133 18.9409 7.11243C18.9409 7.51353 19.1003 7.8982 19.3839 8.18182C19.6675 8.46544 20.0522 8.62477 20.4533 8.62477C20.8544 8.62477 21.239 8.46544 21.5226 8.18182C21.8063 7.8982 21.9656 7.51353 21.9656 7.11243C21.9656 6.71133 21.8063 6.32666 21.5226 6.04304C21.239 5.75942 20.8544 5.60009 20.4533 5.60009Z" fill="white"/>
</svg>
