<svg width="28" height="29" viewBox="0 0 28 29" fill="none" xmlns="http://www.w3.org/2000/svg">
<path d="M3.3699 0.306885C2.54478 0.306885 1.75346 0.63527 1.17001 1.2198C0.586566 1.80433 0.258789 2.59712 0.258789 3.42377C0.258789 4.25042 0.586566 5.04321 1.17001 5.62774C1.75346 6.21227 2.54478 6.54065 3.3699 6.54065C4.19502 6.54065 4.98634 6.21227 5.56979 5.62774C6.15323 5.04321 6.48101 4.25042 6.48101 3.42377C6.48101 2.59712 6.15323 1.80433 5.56979 1.2198C4.98634 0.63527 4.19502 0.306885 3.3699 0.306885ZM0.441796 9.1075C0.393259 9.1075 0.346711 9.12681 0.31239 9.1612C0.27807 9.19558 0.258789 9.24222 0.258789 9.29084V28.3588C0.258789 28.46 0.340776 28.5422 0.441796 28.5422H6.29801C6.34654 28.5422 6.39309 28.5229 6.42741 28.4885C6.46173 28.4541 6.48101 28.4075 6.48101 28.3588V9.29084C6.48101 9.24222 6.46173 9.19558 6.42741 9.1612C6.39309 9.12681 6.34654 9.1075 6.29801 9.1075H0.441796ZM9.95814 9.1075C9.9096 9.1075 9.86305 9.12681 9.82873 9.1612C9.79441 9.19558 9.77513 9.24222 9.77513 9.29084V28.3588C9.77513 28.46 9.85712 28.5422 9.95814 28.5422H15.8143C15.8629 28.5422 15.9094 28.5229 15.9438 28.4885C15.9781 28.4541 15.9974 28.4075 15.9974 28.3588V18.0915C15.9974 17.3621 16.2866 16.6625 16.8014 16.1468C17.3162 15.631 18.0144 15.3413 18.7424 15.3413C19.4705 15.3413 20.1687 15.631 20.6835 16.1468C21.1983 16.6625 21.4875 17.3621 21.4875 18.0915V28.3588C21.4875 28.46 21.5695 28.5422 21.6706 28.5422H27.5268C27.5753 28.5422 27.6218 28.5229 27.6562 28.4885C27.6905 28.4541 27.7098 28.4075 27.7098 28.3588V15.7153C27.7098 12.1554 24.6206 9.37151 21.0849 9.69274C19.9911 9.79327 18.9196 10.0645 17.9094 10.4965L15.9974 11.3179V9.29084C15.9974 9.24222 15.9781 9.19558 15.9438 9.1612C15.9094 9.12681 15.8629 9.1075 15.8143 9.1075H9.95814Z" fill="white"/>
</svg>
