<svg width="12" height="21" viewBox="0 0 12 21" fill="none" xmlns="http://www.w3.org/2000/svg">
<path d="M6.2001 10.1943C5.66966 10.1943 5.16096 9.93094 4.78588 9.4621C4.41081 8.99326 4.2001 8.35738 4.2001 7.69434C4.2001 7.03129 4.41081 6.39541 4.78588 5.92657C5.16096 5.45773 5.66966 5.19434 6.2001 5.19434C6.73053 5.19434 7.23924 5.45773 7.61431 5.92657C7.98938 6.39541 8.2001 7.03129 8.2001 7.69434C8.2001 8.02264 8.14837 8.34773 8.04786 8.65104C7.94735 8.95436 7.80003 9.22996 7.61431 9.4621C7.42859 9.69425 7.20812 9.8784 6.96547 10.004C6.72281 10.1297 6.46274 10.1943 6.2001 10.1943ZM6.2001 0.694336C4.71489 0.694336 3.2905 1.43183 2.2403 2.74459C1.1901 4.05734 0.600098 5.83782 0.600098 7.69434C0.600098 12.9443 6.2001 20.6943 6.2001 20.6943C6.2001 20.6943 11.8001 12.9443 11.8001 7.69434C11.8001 5.83782 11.2101 4.05734 10.1599 2.74459C9.10969 1.43183 7.68531 0.694336 6.2001 0.694336Z" fill="#FFF7ED"/>
</svg>
