<svg width="15" height="15" viewBox="0 0 15 15" fill="none" xmlns="http://www.w3.org/2000/svg">
<path d="M1.2928 14.6943C0.924267 14.6943 0.6168 14.5403 0.3704 14.2323C0.124 13.9243 0.000533333 13.5397 0 13.0783V2.31034C0 1.84967 0.123467 1.46534 0.3704 1.15734C0.617333 0.849336 0.924533 0.695003 1.292 0.694336H13.108C13.476 0.694336 13.7832 0.848669 14.0296 1.15734C14.276 1.466 14.3995 1.85034 14.4 2.31034V13.0793C14.4 13.5393 14.2765 13.9237 14.0296 14.2323C13.7827 14.541 13.4755 14.695 13.108 14.6943H1.2928ZM7.2 7.81034L13.6 2.57934L13.3536 1.69434L7.2 6.69434L1.0464 1.69434L0.8 2.57934L7.2 7.81034Z" fill="#FFF7ED"/>
</svg>
