<svg width="21" height="19" viewBox="0 0 21 19" fill="none" xmlns="http://www.w3.org/2000/svg">
<path d="M5.5 12H15.5C15.7833 12 16.021 11.904 16.213 11.712C16.405 11.52 16.5007 11.2827 16.5 11C16.4993 10.7173 16.4033 10.48 16.212 10.288C16.0207 10.096 15.7833 10 15.5 10H5.5C5.21667 10 4.97933 10.096 4.788 10.288C4.59667 10.48 4.50067 10.7173 4.5 11C4.49933 11.2827 4.59533 11.5203 4.788 11.713C4.98067 11.9057 5.218 12.0013 5.5 12ZM5.5 9H15.5C15.7833 9 16.021 8.904 16.213 8.712C16.405 8.52 16.5007 8.28267 16.5 8C16.4993 7.71733 16.4033 7.48 16.212 7.288C16.0207 7.096 15.7833 7 15.5 7H5.5C5.21667 7 4.97933 7.096 4.788 7.288C4.59667 7.48 4.50067 7.71733 4.5 8C4.49933 8.28267 4.59533 8.52033 4.788 8.713C4.98067 8.90567 5.218 9.00133 5.5 9ZM5.5 6H15.5C15.7833 6 16.021 5.904 16.213 5.712C16.405 5.52 16.5007 5.28267 16.5 5C16.4993 4.71733 16.4033 4.48 16.212 4.288C16.0207 4.096 15.7833 4 15.5 4H5.5C5.21667 4 4.97933 4.096 4.788 4.288C4.59667 4.48 4.50067 4.71733 4.5 5C4.49933 5.28267 4.59533 5.52033 4.788 5.713C4.98067 5.90567 5.218 6.00133 5.5 6ZM2.5 16C1.95 16 1.47933 15.8043 1.088 15.413C0.696667 15.0217 0.500667 14.5507 0.5 14V2C0.5 1.45 0.696 0.979333 1.088 0.588C1.48 0.196667 1.95067 0.000666667 2.5 0H18.5C19.05 0 19.521 0.196 19.913 0.588C20.305 0.98 20.5007 1.45067 20.5 2V17.575C20.5 18.025 20.296 18.3377 19.888 18.513C19.48 18.6883 19.1173 18.6173 18.8 18.3L16.5 16H2.5Z" fill="#744D24"/>
</svg>
