<svg width="15" height="19" viewBox="0 0 15 19" fill="none" xmlns="http://www.w3.org/2000/svg">
<path d="M13.56 18.6943C11.8933 18.6943 10.2467 18.2403 8.62 17.3323C6.99333 16.4243 5.51333 15.1367 4.18 13.4693C2.84667 11.802 1.8168 9.952 1.0904 7.91934C0.364 5.88667 0.000533333 3.82834 0 1.74434C0 1.44434 0.08 1.19434 0.24 0.994336C0.4 0.794336 0.6 0.694336 0.84 0.694336H4.08C4.26667 0.694336 4.43333 0.773669 4.58 0.932336C4.72667 1.091 4.81333 1.27834 4.84 1.49434L5.36 4.99434C5.38667 5.261 5.38 5.486 5.34 5.66934C5.3 5.85267 5.22667 6.011 5.12 6.14434L3.18 8.59434C3.44667 9.211 3.7632 9.80667 4.1296 10.3813C4.496 10.956 4.89947 11.5103 5.34 12.0443C5.75333 12.561 6.18667 13.0403 6.64 13.4823C7.09333 13.9243 7.57333 14.3283 8.08 14.6943L9.96 12.3443C10.08 12.1943 10.2368 12.082 10.4304 12.0073C10.624 11.9327 10.8139 11.9117 11 11.9443L13.76 12.6443C13.9467 12.711 14.1 12.832 14.22 13.0073C14.34 13.1827 14.4 13.3783 14.4 13.5943V17.6443C14.4 17.9443 14.32 18.1943 14.16 18.3943C14 18.5943 13.8 18.6943 13.56 18.6943Z" fill="#FFF7ED"/>
</svg>
