<svg width="28" height="24" viewBox="0 0 28 24" fill="none" xmlns="http://www.w3.org/2000/svg">
<path fill-rule="evenodd" clip-rule="evenodd" d="M1.71637 0.577027C1.53387 0.500473 1.33253 0.480401 1.13846 0.519415C0.944393 0.55843 0.766548 0.65473 0.62799 0.795827C0.489433 0.936925 0.396555 1.11631 0.361402 1.31072C0.326249 1.50513 0.350443 1.70559 0.430846 1.88611L4.50474 11.0142H14.5044C14.7664 11.0142 15.0177 11.1181 15.2029 11.303C15.3882 11.4878 15.4923 11.7386 15.4923 12C15.4923 12.2614 15.3882 12.5122 15.2029 12.697C15.0177 12.8819 14.7664 12.9858 14.5044 12.9858H4.50474L0.430846 22.1139C0.350443 22.2944 0.326249 22.4949 0.361402 22.6893C0.396555 22.8837 0.489433 23.0631 0.62799 23.2042C0.766548 23.3453 0.944393 23.4416 1.13846 23.4806C1.33253 23.5196 1.53387 23.4995 1.71637 23.423L26.7419 12.9082C26.9209 12.8328 27.0736 12.7065 27.181 12.545C27.2884 12.3834 27.3457 12.1939 27.3457 12C27.3457 11.8061 27.2884 11.6166 27.181 11.455C27.0736 11.2935 26.9209 11.1672 26.7419 11.0918L1.71637 0.577027Z" fill="#744D24"/>
</svg>
