<svg width="23" height="23" viewBox="0 0 23 23" fill="none" xmlns="http://www.w3.org/2000/svg">
<path fill-rule="evenodd" clip-rule="evenodd" d="M7.75 13.25C7.75 10.607 7.724 8.2415 7.699 6.585C8.349 4.9725 8.959 3.045 9.3425 1.76C9.646 0.743997 10.588 -0.0625027 11.741 0.0789973C12.1675 0.131497 12.6485 0.217997 13.1235 0.360997C14.46 0.763997 15.0995 2.069 15.187 3.293C15.2495 4.1715 15.2595 5.059 15.242 5.8775C16.562 5.756 17.747 5.6575 18.8365 5.591C20.631 5.482 22.1485 6.8335 22.2165 8.638C22.3235 11.4665 22.241 16.072 20.909 19.6815C20.374 21.131 18.9615 21.9585 17.486 21.99C14.226 22.0585 11.0175 21.76 8.6285 21.4465C8.2935 21.4022 7.97583 21.3582 7.6755 21.3145C7.7035 19.7995 7.75 16.771 7.75 13.25ZM3.25 22.2495C2.645 22.2495 2.1225 22.1715 1.7 22.07C0.608 21.8085 0.088 20.8 0.067 19.883C0.0229391 17.9223 0.000604465 15.9612 0 14C0.000597077 12.0385 0.0229318 10.077 0.067 8.116C0.088 7.199 0.608 6.191 1.6995 5.929C2.20759 5.80913 2.72796 5.74905 3.25 5.75C3.855 5.75 4.3775 5.828 4.8 5.929C5.892 6.1905 6.412 7.199 6.433 8.116C6.461 9.354 6.5 11.518 6.5 14C6.5 16.482 6.461 18.6455 6.433 19.8835C6.412 20.8005 5.892 21.809 4.8005 22.0705C4.3775 22.172 3.8555 22.2495 3.25 22.2495ZM3.25 16.5C3.51522 16.5 3.76957 16.6054 3.95711 16.7929C4.14464 16.9804 4.25 17.2348 4.25 17.5V18.5C4.25 18.7652 4.14464 19.0196 3.95711 19.2071C3.76957 19.3946 3.51522 19.5 3.25 19.5C2.98478 19.5 2.73043 19.3946 2.54289 19.2071C2.35536 19.0196 2.25 18.7652 2.25 18.5V17.5C2.25 17.2348 2.35536 16.9804 2.54289 16.7929C2.73043 16.6054 2.98478 16.5 3.25 16.5Z" fill="#744D24"/>
</svg>
