<svg width="128" height="51" viewBox="0 0 128 51" fill="none" xmlns="http://www.w3.org/2000/svg">
<path d="M115.255 6.58018C115.583 6.68381 115.85 6.86515 116.058 7.12421C116.282 7.366 116.394 7.76323 116.394 8.31589C116.394 8.86856 116.23 9.47303 115.902 10.1293C115.574 10.7856 115.099 11.1138 114.477 11.1138C114.166 11.1138 113.864 11.0447 113.571 10.9065C113.294 10.7683 112.923 10.6993 112.457 10.6993C111.99 10.6993 111.55 10.8633 111.135 11.1915C110.738 11.5196 110.54 11.9168 110.54 12.3832V17.8234C110.54 18.2207 110.522 18.5229 110.488 18.7302C110.471 18.9201 110.393 19.1447 110.255 19.4037C109.996 19.8528 109.322 20.0773 108.234 20.0773C107.405 20.0773 106.809 19.9305 106.446 19.6369C106.17 19.3951 106.015 19.0238 105.98 18.5229C105.98 18.3502 105.98 18.0998 105.98 17.7716V8.67858C105.98 8.28135 105.989 7.98775 106.006 7.79777C106.041 7.59052 106.118 7.366 106.239 7.12421C106.481 6.6579 107.155 6.42475 108.26 6.42475C109.296 6.42475 109.944 6.62336 110.203 7.02059C110.393 7.29692 110.488 7.58189 110.488 7.87549C110.574 7.75459 110.695 7.60779 110.851 7.43508C111.023 7.26238 111.377 7.02922 111.913 6.73562C112.448 6.44202 112.914 6.29522 113.312 6.29522C113.726 6.29522 114.072 6.32112 114.348 6.37293C114.624 6.40748 114.926 6.47656 115.255 6.58018Z" fill="#744D24"/>
<path d="M103.415 6.58018C103.743 6.68381 104.011 6.86515 104.218 7.12421C104.442 7.366 104.555 7.76323 104.555 8.31589C104.555 8.86856 104.391 9.47303 104.062 10.1293C103.734 10.7856 103.259 11.1138 102.638 11.1138C102.327 11.1138 102.024 11.0447 101.731 10.9065C101.454 10.7683 101.083 10.6993 100.617 10.6993C100.151 10.6993 99.7101 10.8633 99.2956 11.1915C98.8984 11.5196 98.6998 11.9168 98.6998 12.3832V17.8234C98.6998 18.2207 98.6825 18.5229 98.648 18.7302C98.6307 18.9201 98.553 19.1447 98.4148 19.4037C98.1558 19.8528 97.4822 20.0773 96.3942 20.0773C95.5652 20.0773 94.9693 19.9305 94.6066 19.6369C94.3303 19.3951 94.1749 19.0238 94.1403 18.5229C94.1403 18.3502 94.1403 18.0998 94.1403 17.7716V8.67858C94.1403 8.28135 94.149 7.98775 94.1662 7.79777C94.2008 7.59052 94.2785 7.366 94.3994 7.12421C94.6412 6.6579 95.3147 6.42475 96.4201 6.42475C97.4563 6.42475 98.104 6.62336 98.363 7.02059C98.553 7.29692 98.648 7.58189 98.648 7.87549C98.7343 7.75459 98.8552 7.60779 99.0107 7.43508C99.1834 7.26238 99.5374 7.02922 100.073 6.73562C100.608 6.44202 101.075 6.29522 101.472 6.29522C101.886 6.29522 102.232 6.32112 102.508 6.37293C102.784 6.40748 103.087 6.47656 103.415 6.58018Z" fill="#744D24"/>
<path d="M84.4916 20.0254C82.7472 20.0254 81.2965 19.3691 80.1394 18.0566C78.9995 16.7267 78.4296 15.1119 78.4296 13.2121V8.67855C78.4296 8.26405 78.4382 7.96182 78.4555 7.77184C78.49 7.58186 78.5677 7.35734 78.6886 7.09828C78.9304 6.63197 79.604 6.39881 80.7093 6.39881C81.9182 6.39881 82.6263 6.72696 82.8336 7.38325C82.9372 7.65958 82.989 8.09998 82.989 8.70446V13.238C82.989 13.9461 83.1876 14.4988 83.5849 14.896C83.9994 15.2932 84.5434 15.4919 85.217 15.4919C85.9078 15.4919 86.4604 15.2846 86.8749 14.8701C87.3067 14.4556 87.5226 13.9116 87.5226 13.238V8.65265C87.5226 8.25542 87.5312 7.96182 87.5485 7.77184C87.583 7.56459 87.6694 7.33143 87.8076 7.07237C88.0321 6.62333 88.697 6.39881 89.8023 6.39881C90.8904 6.39881 91.5553 6.63197 91.7971 7.09828C91.918 7.35734 91.9871 7.59049 92.0044 7.79774C92.0389 7.98772 92.0562 8.28132 92.0562 8.67855V17.8493C92.0562 18.2293 92.0389 18.5229 92.0044 18.7301C91.9871 18.9201 91.9094 19.136 91.7712 19.3778C91.5121 19.8268 90.8472 20.0513 89.7764 20.0513C88.7229 20.0513 88.0753 19.8441 87.8335 19.4296C87.6608 19.136 87.5744 18.7819 87.5744 18.3674C87.5053 18.4883 87.3499 18.661 87.1081 18.8856C86.8663 19.1101 86.6332 19.3001 86.4086 19.4555C85.8214 19.8355 85.1824 20.0254 84.4916 20.0254Z" fill="#744D24"/>
<path d="M74.7462 6.45062C75.9379 6.45062 76.6374 6.77877 76.8446 7.43506C76.9482 7.7632 77.0001 8.19497 77.0001 8.73036C77.0001 9.26576 76.9396 9.69752 76.8187 10.0257C76.7151 10.3365 76.5424 10.5611 76.3006 10.6992C75.9379 10.9065 75.4112 11.0101 74.7203 11.0101L73.0623 10.9065V17.8493C73.0623 18.5056 72.976 18.9978 72.8033 19.326C72.6478 19.6368 72.3974 19.8441 72.052 19.9477C71.7238 20.0513 71.2921 20.1031 70.7567 20.1031C70.2213 20.1031 69.7895 20.0513 69.4614 19.9477C69.1505 19.8268 68.926 19.6455 68.7878 19.4037C68.6497 19.1446 68.5633 18.9115 68.5288 18.7042C68.5115 18.497 68.5029 18.1947 68.5029 17.7975V10.9324H67.5702C67.1212 10.8978 66.8017 10.7942 66.6117 10.6215C66.2836 10.2934 66.1195 9.66298 66.1195 8.73036C66.1195 7.31416 66.629 6.60606 67.648 6.60606H68.5029V5.23304C68.5029 3.90319 68.9778 2.70287 69.9277 1.63209C70.8776 0.544028 72.2506 0 74.0468 0C74.444 0 74.7376 0.0172702 74.9276 0.0518113C75.1348 0.0690828 75.368 0.146801 75.627 0.284966C76.0933 0.509486 76.3265 1.17441 76.3265 2.27974C76.3265 3.10873 76.1797 3.70457 75.8861 4.06726C75.6443 4.34359 75.2644 4.49903 74.7462 4.53357C74.5908 4.53357 74.349 4.53357 74.0209 4.53357C73.3818 4.53357 73.0623 4.74945 73.0623 5.18122V6.60606L74.7462 6.45062Z" fill="#744D24"/>
<path d="M125.556 31.309C126.575 31.758 127.084 32.302 127.084 32.9411C127.084 33.2519 127.015 33.5455 126.877 33.8219C126.739 34.0982 126.67 34.245 126.67 34.2623L119.882 49.4433C119.744 49.7714 119.623 50.0218 119.52 50.1945C119.433 50.3673 119.287 50.5313 119.079 50.6868C118.872 50.8422 118.613 50.9199 118.302 50.9199C117.991 50.9199 117.534 50.7904 116.929 50.5313C115.91 50.0823 115.401 49.5469 115.401 48.9251C115.401 48.5106 116.23 46.5331 117.888 42.9926L112.732 34.3141C112.387 33.7442 112.214 33.321 112.214 33.0447C112.214 32.492 112.68 31.9394 113.613 31.3867C114.2 31.0413 114.658 30.8686 114.986 30.8686C115.314 30.8686 115.582 30.9377 115.789 31.0758C115.996 31.214 116.143 31.3608 116.23 31.5162C116.333 31.6544 116.808 32.4575 117.654 33.9255C118.518 35.3762 119.338 36.732 120.116 37.9928C120.202 37.7164 120.668 36.6543 121.514 34.8063C122.361 32.9411 122.81 31.948 122.862 31.8271C122.931 31.7062 123.034 31.5594 123.172 31.3867C123.397 31.0931 123.708 30.9463 124.105 30.9463C124.52 30.9463 125.003 31.0672 125.556 31.309Z" fill="#744D24"/>
<path d="M105.017 31.1792C106.554 31.1792 107.962 31.8614 109.24 33.2258C110.535 34.5902 111.183 36.1791 111.183 37.9925C111.183 39.7887 110.544 41.3689 109.266 42.7333C107.988 44.0804 106.615 44.754 105.147 44.754C103.679 44.754 102.634 44.3395 102.012 43.5105C101.874 44.3568 101.131 44.7799 99.7843 44.7799C98.6962 44.7799 98.0313 44.5468 97.7895 44.0804C97.6686 43.8214 97.5909 43.5969 97.5563 43.4069C97.5391 43.1996 97.5304 42.8974 97.5304 42.5002V27.0342C97.5304 26.637 97.5391 26.3434 97.5563 26.1534C97.5909 25.9462 97.6686 25.7216 97.7895 25.4798C98.0313 25.0135 98.7048 24.7804 99.8102 24.7804C100.898 24.7804 101.555 25.0135 101.779 25.4798C101.917 25.7389 101.995 25.9721 102.012 26.1793C102.047 26.3693 102.064 26.6629 102.064 27.0601V32.4486C102.755 31.6023 103.739 31.1792 105.017 31.1792ZM102.738 39.5469C103.169 40.0132 103.705 40.2463 104.344 40.2463C104.983 40.2463 105.527 40.0132 105.976 39.5469C106.425 39.0806 106.649 38.5624 106.649 37.9925C106.649 37.4226 106.442 36.9044 106.028 36.4381C105.613 35.9546 105.06 35.7128 104.37 35.7128C103.679 35.7128 103.126 35.9546 102.712 36.4381C102.314 36.9217 102.116 37.4485 102.116 38.0184C102.116 38.5711 102.323 39.0806 102.738 39.5469Z" fill="#744D24"/>
<path d="M90.9579 32.6042C91.0615 31.637 91.7437 31.1534 93.0044 31.1534C93.678 31.1534 94.1789 31.2052 94.507 31.3089C94.8351 31.4125 95.0597 31.5938 95.1806 31.8529C95.3187 32.112 95.3964 32.3451 95.4137 32.5524C95.4483 32.7423 95.4655 33.0359 95.4655 33.4332V42.5003C95.4655 42.8975 95.4483 43.1998 95.4137 43.407C95.3964 43.597 95.3274 43.8215 95.2065 44.0806C94.9647 44.5296 94.3688 44.7541 93.4189 44.7541C92.4863 44.7541 91.8559 44.6419 91.5278 44.4174C91.2169 44.1756 91.0356 43.8302 90.9838 43.3811C90.3448 44.2965 89.274 44.7541 87.7714 44.7541C86.2861 44.7541 84.9045 44.0719 83.6264 42.7076C82.3484 41.3432 81.7094 39.7629 81.7094 37.9667C81.7094 36.1533 82.3484 34.573 83.6264 33.2259C84.9217 31.8615 86.3379 31.1793 87.875 31.1793C88.4622 31.1793 88.9976 31.283 89.4812 31.4902C89.9648 31.6975 90.3016 31.8961 90.4916 32.086C90.6815 32.2588 90.837 32.4315 90.9579 32.6042ZM86.243 37.9926C86.243 38.5626 86.4675 39.0807 86.9165 39.547C87.3656 39.996 87.9096 40.2206 88.5486 40.2206C89.1876 40.2206 89.7144 39.9874 90.1289 39.5211C90.5606 39.0548 90.7765 38.5453 90.7765 37.9926C90.7765 37.4227 90.5693 36.8959 90.1548 36.4124C89.7575 35.9288 89.2135 35.687 88.5227 35.687C87.8491 35.687 87.2965 35.9288 86.8647 36.4124C86.4502 36.8959 86.243 37.4227 86.243 37.9926Z" fill="#744D24"/>
<path d="M74.2538 31.1791C75.7909 31.1791 77.1985 31.8613 78.4765 33.2257C79.7718 34.5901 80.4194 36.179 80.4194 37.9925C80.4194 39.7886 79.7804 41.3689 78.5024 42.7333C77.2244 44.0804 75.8513 44.7539 74.3833 44.7539C72.9153 44.7539 71.8704 44.3394 71.2487 43.5105C71.1105 44.3567 70.3679 44.7799 69.0208 44.7799C67.9327 44.7799 67.2678 44.5467 67.026 44.0804C66.9051 43.8213 66.8274 43.5968 66.7928 43.4068C66.7756 43.1996 66.7669 42.8973 66.7669 42.5001V27.0342C66.7669 26.6369 66.7756 26.3433 66.7928 26.1534C66.8274 25.9461 66.9051 25.7216 67.026 25.4798C67.2678 25.0135 67.9413 24.7803 69.0467 24.7803C70.1347 24.7803 70.791 25.0135 71.0155 25.4798C71.1537 25.7389 71.2314 25.972 71.2487 26.1793C71.2832 26.3692 71.3005 26.6628 71.3005 27.0601V32.4485C71.9913 31.6023 72.9758 31.1791 74.2538 31.1791ZM71.9741 39.5468C72.4058 40.0131 72.9412 40.2463 73.5802 40.2463C74.2192 40.2463 74.7633 40.0131 75.2123 39.5468C75.6614 39.0805 75.8859 38.5624 75.8859 37.9925C75.8859 37.4225 75.6786 36.9044 75.2641 36.4381C74.8496 35.9545 74.297 35.7127 73.6061 35.7127C72.9153 35.7127 72.3626 35.9545 71.9481 36.4381C71.5509 36.9217 71.3523 37.4484 71.3523 38.0184C71.3523 38.571 71.5596 39.0805 71.9741 39.5468Z" fill="#744D24"/>
<path fill-rule="evenodd" clip-rule="evenodd" d="M14.8765 10.846C12.392 11.2805 10.2515 12.8077 9.0799 14.0839C8.30238 14.9309 6.98548 14.9872 6.13852 14.2096C5.29156 13.4321 5.23527 12.1152 6.01279 11.2683C7.63536 9.50078 10.5523 7.37551 14.1592 6.7447C17.9191 6.08714 22.1755 7.10506 26.1012 11.2434C26.8924 12.0775 26.8577 13.3951 26.0236 14.1864C25.1894 14.9777 23.8718 14.9429 23.0805 14.1088C20.0766 10.9422 17.2079 10.4383 14.8765 10.846Z" fill="#744D24"/>
<path fill-rule="evenodd" clip-rule="evenodd" d="M38.4266 10.846C35.9422 11.2805 33.8016 12.8077 32.63 14.0839C31.8525 14.9309 30.5356 14.9872 29.6887 14.2096C28.8417 13.4321 28.7854 12.1152 29.5629 11.2683C31.1855 9.50078 34.1024 7.37551 37.7093 6.7447C41.4692 6.08714 45.7256 7.10506 49.6513 11.2434C50.4426 12.0775 50.4078 13.3951 49.5737 14.1864C48.7396 14.9777 47.4219 14.9429 46.6306 14.1088C43.6267 10.9422 40.758 10.4383 38.4266 10.846Z" fill="#744D24"/>
<path fill-rule="evenodd" clip-rule="evenodd" d="M22.4249 39.2517C17.286 40.9468 13.2315 39.9075 10.2843 37.9022C6.52974 35.3475 4.40202 31.1176 4.15674 28.1249C4.06282 26.9791 3.05776 26.1263 1.91187 26.2202C0.765984 26.3141 -0.0868041 27.3192 0.00711579 28.4651C0.357717 32.7426 3.17319 38.0996 7.94215 41.3445C12.6405 44.5413 19.0963 45.604 26.6849 42.0176C29.7291 43.9639 34.5809 45.135 39.5643 43.9414C45.407 42.542 51.1732 37.9772 54.6531 28.334C55.0434 27.2525 54.4831 26.0594 53.4016 25.6692C52.3201 25.2789 51.127 25.8392 50.7368 26.9207C47.6471 35.4827 42.8456 38.8742 38.5945 39.8924C35.7998 40.5618 33.1261 40.2423 31.0784 39.5308C36.7795 35.7647 39.4875 31.508 39.7911 27.8053C39.9698 25.6269 39.2875 23.5633 37.7178 22.2525C36.1153 20.9144 33.9528 20.6672 31.8633 21.4379L31.7638 21.4747L26.8483 23.8812L21.3548 21.4098L21.1583 21.3639C17.5434 20.5193 13.7902 23.3066 13.9112 27.6673C14.0094 31.2078 16.5853 35.2251 22.4249 39.2517ZM26.9213 37.1973C33.4528 33.4897 35.4618 29.6567 35.6415 27.465C35.7352 26.3225 35.3596 25.7076 35.0491 25.4484C34.7804 25.224 34.2662 25.0161 33.3932 25.3127L26.9231 28.4803L20.0559 25.3909C19.1632 25.283 18.0291 25.9654 18.0731 27.5518C18.1228 29.3422 19.7828 32.896 26.9213 37.1973Z" fill="#744D24"/>
</svg>
